<?xml version="1.0" standalone="no"?>
<!DOCTYPE svg PUBLIC "-//W3C//DTD SVG 20010904//EN"
 "http://www.w3.org/TR/2001/REC-SVG-20010904/DTD/svg10.dtd">
<svg version="1.0" xmlns="http://www.w3.org/2000/svg"
 width="500.000000pt" height="500.000000pt" viewBox="0 0 500.000000 500.000000"
 preserveAspectRatio="xMidYMid meet">
<metadata>
Created by potrace 1.14, written by Peter Selinger 2001-2017
</metadata>
<g transform="translate(0.000000,500.000000) scale(0.100000,-0.100000)"
fill="#000000" stroke="none">
<path d="M2358 4871 c-8 -11 -27 -18 -53 -19 -70 -2 -169 -17 -192 -30 -31
-17 -36 -44 -24 -126 9 -62 8 -72 -10 -97 -11 -15 -26 -44 -34 -63 -17 -40
-31 -44 -75 -21 -16 9 -50 18 -74 21 -31 5 -58 18 -91 45 -42 35 -53 39 -100
39 -42 0 -60 -5 -83 -25 -16 -13 -32 -22 -35 -19 -2 3 -20 -1 -38 -9 -35 -14
-83 -65 -130 -134 -17 -26 -47 -49 -92 -71 -67 -35 -79 -50 -91 -121 -4 -20
-22 -52 -45 -76 -67 -72 -79 -163 -26 -187 14 -6 25 -19 25 -29 0 -15 44 -61
68 -71 4 -1 23 -28 40 -58 18 -30 52 -77 76 -104 41 -45 47 -48 77 -42 36 7
79 41 79 63 0 7 5 13 10 13 15 0 11 -83 -5 -104 -8 -11 -15 -27 -15 -35 0 -9
-14 -36 -30 -60 -17 -25 -30 -57 -30 -75 0 -17 -4 -76 -9 -131 -9 -101 -1
-152 28 -170 7 -4 9 -15 6 -25 -8 -26 20 -89 59 -130 19 -19 39 -51 45 -71 6
-19 25 -45 41 -58 22 -16 30 -30 30 -52 0 -19 9 -38 26 -54 24 -23 26 -30 29
-137 2 -62 11 -144 20 -183 24 -101 29 -165 15 -210 -7 -22 -15 -87 -19 -145
-4 -58 -14 -119 -22 -135 -13 -28 -18 -30 -71 -30 -60 0 -98 -22 -98 -57 0
-10 -10 -26 -22 -36 -47 -38 -58 -53 -58 -83 0 -17 4 -38 10 -48 7 -15 1 -27
-31 -60 -22 -22 -47 -41 -55 -41 -7 0 -20 -10 -28 -22 -14 -23 -36 -152 -36
-212 0 -18 -9 -45 -20 -59 -12 -15 -20 -40 -20 -64 0 -32 5 -42 24 -51 22 -10
25 -18 29 -89 5 -102 47 -207 92 -231 32 -17 138 -40 193 -41 29 -1 32 -3 22
-20 -27 -51 -3 -114 54 -143 36 -19 67 -22 276 -28 129 -4 485 -7 790 -6 526
1 557 2 594 20 50 25 76 68 76 128 l0 46 68 23 c117 38 142 61 211 194 11 22
23 67 27 99 5 44 13 64 31 79 33 29 32 95 -2 127 -17 16 -25 34 -25 59 -1 63
-16 105 -54 145 -20 22 -36 45 -36 51 0 6 -12 22 -26 36 -22 21 -25 29 -19 71
6 42 4 50 -20 74 -15 15 -31 39 -35 53 -10 41 -64 71 -125 71 -66 0 -82 17
-95 98 -6 33 -22 86 -37 118 -24 53 -25 61 -14 98 39 128 41 145 41 286 0 134
1 146 20 158 11 7 20 21 20 31 0 11 5 23 10 26 6 3 10 17 10 31 0 14 7 27 15
30 16 7 75 118 75 143 0 9 16 31 35 50 25 23 35 41 35 63 0 16 12 49 26 74 18
30 24 52 20 69 -4 15 1 36 15 60 16 27 20 44 14 73 -3 20 -6 56 -6 80 1 23 -5
55 -13 71 -8 15 -12 37 -9 49 3 13 -4 35 -16 55 -12 19 -21 40 -21 48 0 7 -12
30 -26 51 -27 38 -27 72 0 62 9 -3 18 -21 22 -39 6 -35 39 -65 70 -65 21 0
141 116 148 143 3 12 35 44 70 71 72 54 112 105 122 153 7 36 -4 60 -57 124
-31 37 -39 55 -39 87 0 84 -36 121 -140 143 -69 15 -74 19 -89 69 -22 73 -138
160 -213 160 -48 -1 -108 -31 -148 -76 -30 -32 -48 -42 -108 -57 -39 -10 -76
-16 -81 -13 -5 4 -12 19 -16 35 -3 16 -17 41 -31 56 -20 21 -24 37 -24 83 0
39 -6 67 -20 90 -11 18 -20 39 -20 48 0 56 -68 103 -131 90 -22 -4 -38 0 -59
16 -27 20 -33 20 -69 8 -31 -10 -44 -10 -55 -1 -10 9 -20 9 -40 0 -20 -9 -29
-9 -41 1 -12 10 -18 10 -30 0 -8 -6 -20 -8 -27 -4 -7 4 -43 9 -80 10 -55 2
-70 -1 -80 -15z m292 -51 c8 -15 8 -30 -1 -54 -18 -48 -7 -63 58 -82 110 -31
173 -86 173 -151 0 -10 9 -35 20 -56 11 -20 20 -45 20 -54 0 -15 -69 -83 -84
-83 -7 0 -69 91 -64 94 1 1 17 8 35 15 32 13 60 38 51 46 -2 2 -28 -4 -56 -15
-58 -22 -103 -25 -134 -9 -26 14 -17 53 20 92 36 37 77 36 118 -4 46 -45 59
-32 18 18 -58 70 -125 67 -188 -7 -30 -37 -32 -56 -9 -104 13 -29 14 -38 3
-51 -16 -19 -79 -20 -105 -2 -16 12 -16 18 -7 47 17 47 15 81 -7 114 -24 37
-57 55 -96 55 -34 0 -57 -11 -104 -51 -46 -40 -38 -55 11 -19 41 30 89 40 114
23 17 -11 37 -53 28 -60 -4 -4 -9 -1 -12 7 -11 32 -44 53 -74 47 -30 -6 -98
-52 -98 -67 0 -16 31 -10 57 11 34 26 59 25 94 -4 21 -18 25 -27 16 -34 -25
-20 -55 -22 -103 -7 -27 8 -60 15 -74 15 -23 0 -22 -1 10 -20 19 -11 47 -25
62 -31 l26 -10 -24 -37 c-13 -20 -27 -41 -32 -47 -18 -23 -22 -49 -10 -81 14
-38 3 -58 -17 -30 -8 10 -19 15 -25 11 -8 -5 -6 -11 7 -20 12 -9 17 -27 18
-60 0 -49 2 -52 60 -77 32 -14 41 -34 25 -58 -9 -13 -14 -11 -31 12 -11 15
-36 32 -56 39 l-36 11 6 54 c3 30 1 56 -4 59 -15 10 -10 41 11 65 30 35 25 62
-20 103 -46 41 -53 79 -20 117 13 15 20 37 20 66 0 27 6 49 17 60 24 24 110
61 160 69 61 10 70 25 42 74 -24 43 -20 71 9 71 36 0 47 -26 34 -77 -7 -25
-11 -48 -9 -50 3 -2 16 -1 31 3 29 7 34 31 14 64 -15 23 -1 55 23 55 10 0 14
-15 14 -57 0 -47 3 -58 18 -62 23 -6 32 16 18 43 -14 26 -14 64 1 79 17 17 26
15 38 -8z m100 11 c0 -16 -43 -106 -54 -113 -31 -20 -29 69 2 105 16 18 52 24
52 8z m-335 -35 c17 -26 11 -80 -9 -73 -17 6 -49 66 -42 82 8 22 34 18 51 -9z
m-97 -2 c23 -16 57 -83 46 -93 -3 -3 -18 9 -32 27 -15 18 -33 32 -41 32 -10 0
-7 -8 9 -25 13 -14 20 -28 16 -32 -5 -5 -15 2 -23 15 -15 21 -52 30 -67 15 -4
-5 -12 -9 -17 -9 -5 -1 -15 -2 -21 -3 -8 -1 -6 -6 5 -12 12 -7 16 -17 12 -30
-4 -12 -2 -19 7 -19 20 0 38 21 38 43 0 10 5 15 10 12 20 -12 10 -61 -16 -86
-35 -33 -56 -75 -52 -107 2 -15 -6 -49 -16 -75 -19 -48 -19 -48 2 -100 27 -64
28 -84 3 -92 -10 -3 -26 -14 -36 -25 -10 -11 -31 -20 -47 -20 -31 0 -36 11
-13 30 19 16 19 44 0 60 -11 9 -15 27 -13 54 4 61 23 53 44 -18 10 -34 31 -45
40 -22 10 26 -5 66 -36 94 -15 15 -29 36 -31 47 -3 23 9 82 23 108 13 25 38 4
38 -32 l1 -26 14 25 c19 33 18 52 -2 88 -17 29 -17 31 0 50 22 24 22 32 -3 32
-15 0 -20 7 -20 24 0 36 27 59 61 52 19 -3 35 1 51 14 28 24 37 24 66 4z m566
10 c28 -11 17 -43 -24 -72 -44 -31 -51 -52 -17 -52 13 0 32 -9 42 -20 10 -11
22 -20 27 -20 15 0 8 23 -14 47 -16 17 -19 26 -11 34 17 17 43 3 43 -21 0 -11
7 -32 17 -46 15 -24 15 -28 -3 -62 -10 -20 -20 -40 -22 -44 -2 -5 5 -8 15 -8
24 0 73 -63 73 -94 0 -14 -5 -37 -12 -52 -10 -22 -10 -28 6 -39 14 -11 17 -22
12 -52 -3 -21 -3 -44 2 -50 13 -20 2 -83 -14 -83 -10 0 -13 -7 -8 -25 8 -31
-8 -33 -29 -2 -15 21 -15 19 -10 -30 6 -53 -3 -67 -25 -40 -13 16 -42 97 -42
120 0 20 25 23 34 5 4 -7 3 -2 0 12 -11 44 -5 91 16 117 31 40 27 100 -11 151
-28 38 -30 47 -24 90 5 41 3 50 -17 69 -13 11 -38 24 -56 28 -32 7 -62 28 -62
45 0 17 32 40 57 40 31 0 26 24 -7 28 -17 3 -32 -5 -52 -30 -26 -31 -27 -32
-28 -10 0 37 43 72 89 72 22 0 46 -3 55 -6z m-1130 -250 c9 -3 16 -15 16 -27
0 -11 7 -28 16 -38 9 -10 16 -40 18 -73 3 -48 1 -59 -17 -71 -19 -13 -20 -18
-9 -35 16 -27 15 -30 -8 -30 -23 0 -26 -13 -6 -29 20 -16 31 -70 18 -83 -8 -8
-20 -7 -42 2 -45 19 -47 6 -5 -34 33 -31 36 -39 30 -68 -8 -36 -22 -58 -37
-58 -6 0 -7 11 -4 26 9 33 -9 54 -45 54 -18 0 -32 7 -39 19 -15 29 -13 32 18
29 23 -3 27 1 27 22 0 19 -7 27 -32 35 -44 15 -52 25 -19 25 17 0 39 11 58 30
26 27 29 35 23 67 -9 50 -31 90 -56 104 -32 16 -35 3 -5 -23 16 -14 29 -38 33
-60 4 -30 1 -41 -20 -62 -15 -14 -36 -26 -48 -26 l-22 0 20 23 c36 38 37 63 6
85 -15 11 -44 23 -63 27 -48 10 -60 22 -60 61 0 40 23 57 57 41 30 -13 41 -2
20 21 -25 28 -20 37 9 17 25 -16 27 -16 62 9 36 24 75 32 106 20z m1734 -30
c24 -17 29 -53 10 -72 -9 -9 -8 -12 4 -12 9 0 24 10 34 23 l16 22 -6 -28 c-6
-26 -5 -27 14 -17 18 10 20 8 20 -17 0 -16 -7 -38 -15 -50 -12 -17 -22 -20
-55 -16 -37 5 -40 4 -40 -18 0 -25 -20 -65 -20 -41 0 19 -17 14 -23 -8 -3 -11
-17 -22 -33 -26 -49 -11 -73 -32 -80 -69 -5 -29 -10 -36 -28 -33 -30 4 -26 54
8 104 28 42 39 107 11 70 -17 -22 -39 -11 -32 16 7 25 -1 48 -17 48 -7 0 -11
-19 -11 -50 0 -60 -18 -81 -77 -89 -32 -5 -46 -12 -53 -28 -12 -28 -17 -28
-39 -4 -19 21 -14 41 9 41 8 0 19 9 25 19 6 12 26 22 50 26 43 7 70 35 69 70
0 19 -1 19 -16 -2 -8 -13 -23 -23 -33 -23 -9 0 -37 -13 -61 -30 -53 -36 -59
-37 -59 -6 0 15 13 36 35 55 57 50 84 60 135 51 52 -9 60 -6 60 22 0 11 15 35
34 54 30 30 40 34 88 34 32 0 62 -6 76 -16z m-1599 -35 c43 -15 39 -29 -9 -29
-22 0 -40 2 -40 4 0 2 -3 11 -6 20 -7 19 10 21 55 5z m121 -29 c27 -27 26 -44
-2 -29 -23 12 -38 28 -38 42 0 13 20 7 40 -13z m-79 -30 c20 -6 53 -25 73 -43
31 -26 37 -37 34 -62 l-4 -30 -19 34 c-27 47 -63 83 -75 76 -6 -4 3 -23 21
-45 19 -23 31 -51 32 -72 2 -29 -1 -33 -25 -36 -34 -4 -37 -31 -8 -57 26 -23
24 -78 -2 -83 -12 -2 -17 5 -20 25 -2 22 -9 29 -35 34 -44 9 -97 63 -85 86 5
10 6 27 1 38 -15 37 -9 39 19 7 22 -25 37 -33 80 -38 41 -5 52 -4 52 8 0 24
-22 38 -60 38 -55 0 -80 23 -78 71 2 56 27 69 99 49z m514 -37 c1 -60 35 -76
175 -78 100 -2 130 11 130 56 0 36 17 38 26 2 17 -65 -47 -108 -122 -81 -52
18 -60 4 -9 -18 54 -22 90 -18 130 17 32 28 35 29 35 11 0 -11 -12 -30 -26
-41 -36 -28 -98 -27 -157 3 -52 26 -60 21 -22 -14 30 -28 115 -44 165 -30 21
6 45 22 59 40 18 25 25 29 37 19 8 -6 14 -21 14 -33 -1 -19 -1 -20 -11 -3 -10
16 -14 14 -48 -21 -64 -66 -154 -67 -223 -1 l-40 38 -36 -38 c-50 -52 -185
-96 -157 -52 3 6 15 11 26 11 11 0 17 5 14 10 -3 6 -14 10 -24 10 -9 0 -25 6
-34 13 -15 10 -7 11 47 9 48 -3 76 1 110 17 25 11 46 25 46 30 0 14 -27 14
-35 1 -3 -5 -12 -10 -18 -10 -7 0 -4 5 6 11 29 17 19 38 -23 49 -46 12 -47 14
-56 70 -6 34 -4 42 7 38 8 -3 14 -18 14 -35z m273 3 c5 -25 -25 -66 -48 -66
-26 0 -26 17 0 25 14 4 20 15 20 37 0 32 22 35 28 4z m-1232 -17 c10 -11 33
-27 50 -34 18 -7 37 -23 44 -34 9 -18 6 -23 -22 -41 -18 -11 -47 -20 -65 -20
-17 0 -35 -4 -38 -10 -4 -6 9 -10 32 -10 45 0 77 -20 98 -60 12 -24 13 -39 5
-77 -8 -35 -8 -59 2 -95 9 -39 9 -53 0 -68 -7 -11 -12 -38 -12 -60 0 -34 -4
-42 -25 -50 -14 -5 -34 -24 -45 -42 -11 -18 -20 -26 -20 -18 -1 9 -8 5 -21
-12 -22 -30 -56 -37 -65 -14 -10 25 24 76 50 76 33 0 61 28 76 77 11 37 11 45
-4 68 -9 14 -20 25 -25 25 -5 0 -20 18 -35 41 l-27 40 33 -6 c26 -5 40 -1 61
15 15 12 27 28 27 36 0 18 -14 18 -30 -1 -7 -8 -24 -15 -37 -15 -22 0 -24 2
-13 15 10 13 9 15 -11 16 -53 4 -96 -4 -125 -22 -46 -28 -57 -23 -23 10 19 19
29 40 29 59 0 30 29 52 70 52 27 0 16 21 -26 48 -43 27 -54 27 -82 2 -22 -21
-31 -70 -12 -70 15 0 31 -37 24 -55 -4 -8 -19 -22 -34 -30 -17 -9 -33 -29 -40
-49 -12 -36 -35 -51 -64 -40 -28 11 -19 53 21 93 47 45 73 96 73 138 0 27 6
37 33 53 17 11 49 25 70 31 24 6 42 19 49 35 14 29 29 31 54 3z m958 -79 c18
-8 16 -9 -12 -9 -44 -1 -90 42 -71 65 11 13 16 11 37 -16 14 -18 34 -36 46
-40z m1236 30 c20 -10 53 -21 73 -25 43 -8 64 -34 73 -85 11 -70 15 -79 48
-112 40 -39 52 -77 31 -104 -15 -19 -15 -19 -30 0 -8 10 -16 23 -17 28 -2 5
-19 13 -38 17 -24 5 -39 16 -53 41 -10 19 -13 29 -6 23 22 -22 40 -16 33 11
-3 13 -1 27 5 30 14 9 14 71 1 97 -19 34 -46 22 -89 -38 -23 -32 -41 -63 -41
-68 0 -6 14 -19 30 -28 17 -10 30 -24 31 -30 1 -7 2 -21 3 -32 1 -14 11 -21
38 -26 41 -6 86 -33 95 -55 11 -29 -7 -26 -44 6 -45 40 -59 23 -17 -21 15 -16
24 -32 20 -36 -4 -5 -22 8 -38 27 -19 21 -28 27 -23 15 37 -100 22 -117 -35
-40 -23 31 -39 59 -37 62 3 3 16 -11 29 -31 13 -20 26 -36 31 -36 15 0 6 30
-25 76 -25 36 -40 50 -61 52 -38 5 -53 -10 -77 -77 -13 -35 -29 -60 -42 -66
-32 -14 -33 -31 -4 -60 19 -18 36 -25 66 -25 36 0 40 -2 40 -25 0 -14 7 -36
15 -49 14 -21 13 -23 -9 -36 -32 -17 -55 -7 -67 30 -7 18 -26 38 -50 52 l-39
22 0 65 c0 36 -3 76 -6 89 -6 20 -3 22 28 22 24 0 42 8 61 28 35 37 34 43 -5
31 -56 -16 -71 -12 -64 15 3 14 2 36 -4 50 -20 53 17 75 95 55 58 -15 68 -5
31 28 -24 21 -36 24 -67 19 -31 -5 -40 -3 -49 13 -15 30 -12 61 8 68 9 3 29
19 45 35 29 32 40 32 107 -2z m-1323 -42 c14 -13 43 -25 71 -29 l47 -6 -48 -2
c-54 -1 -81 10 -97 39 -14 26 -2 25 27 -2z m-320 -49 c-3 -23 -1 -53 4 -67 20
-52 0 -55 -34 -6 -36 52 -37 64 -7 64 13 0 22 9 26 25 10 40 17 29 11 -16z
m1440 5 c4 -11 -9 -29 -41 -56 -33 -28 -46 -47 -44 -61 4 -29 21 -31 33 -5 6
13 20 24 31 26 21 3 21 1 12 -45 -13 -62 -26 -76 -93 -97 -59 -18 -67 -29 -34
-47 28 -15 9 -34 -25 -25 -32 8 -42 43 -26 90 14 42 26 52 45 36 16 -13 87 -9
92 5 2 6 -11 15 -29 20 -23 7 -38 21 -50 45 -9 19 -17 38 -18 42 0 4 22 19 48
32 27 13 54 32 61 40 17 20 30 20 38 0z m-2107 -4 c0 -5 -7 -10 -15 -10 -8 0
-15 5 -15 10 0 6 7 10 15 10 8 0 15 -4 15 -10z m1870 -25 c-12 -51 -27 -65
-72 -65 -31 0 -41 -4 -45 -20 -3 -11 -11 -20 -18 -20 -21 0 -27 31 -11 54 34
47 44 56 67 56 13 0 35 7 49 14 37 21 39 19 30 -19z m-367 -36 c7 -53 2 -65
-33 -78 -16 -5 -36 -21 -45 -35 -20 -29 -35 -26 -35 8 0 14 10 30 24 40 13 8
34 36 47 61 12 25 26 45 29 45 4 0 10 -19 13 -41z m907 16 c0 -20 -40 -55 -62
-55 -25 0 -23 9 14 47 31 32 48 35 48 8z m-1590 -35 c0 -16 5 -32 10 -35 6 -4
10 7 10 24 0 17 5 31 11 31 8 0 9 -17 4 -57 -9 -74 -13 -82 -40 -89 -34 -8
-96 59 -93 101 3 24 8 31 30 33 14 2 32 10 38 17 17 20 30 9 30 -25z m873 -37
c-4 -38 -13 -66 -26 -80 -21 -24 -16 -46 5 -25 7 7 15 12 20 12 12 0 -4 -63
-23 -92 -20 -28 -26 -108 -9 -108 6 0 10 15 10 34 0 35 35 90 51 81 19 -13 10
-90 -16 -125 -14 -19 -25 -47 -25 -64 l0 -31 33 39 c19 22 36 35 40 29 8 -13
-7 -68 -27 -98 -14 -21 -12 -65 3 -65 4 0 15 14 24 30 20 33 37 39 37 14 0
-25 -52 -115 -64 -111 -6 2 -14 19 -17 38 -3 19 -15 50 -27 69 -12 19 -22 50
-22 68 0 18 -11 59 -25 92 -23 55 -24 61 -10 99 8 23 12 48 9 55 -3 8 4 31 15
52 12 21 21 48 21 60 0 21 19 84 25 84 2 0 1 -26 -2 -57z m-1193 12 c22 -14
40 -29 40 -33 0 -5 11 -15 25 -22 33 -18 41 -47 19 -71 -17 -19 -17 -19 -31 1
-8 12 -33 28 -55 37 -43 17 -62 49 -52 89 3 13 8 24 10 24 3 0 22 -11 44 -25z
m738 8 c37 -9 20 -53 -20 -53 -19 0 -24 -15 -9 -25 6 -3 26 9 45 26 25 21 36
26 36 16 0 -29 -34 -56 -81 -62 -43 -6 -48 -5 -72 25 -15 17 -27 38 -27 46 0
19 59 45 85 38 11 -3 30 -8 43 -11z m-152 -54 c59 -85 150 -99 202 -32 62 81
61 79 72 63 5 -8 10 -41 10 -72 0 -49 -3 -59 -26 -77 -31 -24 -84 -30 -65 -7
9 11 6 15 -13 18 -18 4 -26 0 -29 -14 -4 -13 -14 -18 -37 -18 -27 0 -32 3 -27
20 4 17 1 19 -21 14 -39 -10 -46 -15 -31 -25 9 -6 2 -9 -22 -9 -46 0 -73 28
-72 76 2 52 13 104 22 104 5 0 21 -18 37 -41z m814 13 l23 -18 -28 -22 c-17
-14 -42 -22 -64 -22 -45 0 -77 -21 -68 -44 10 -25 -9 -19 -28 10 -16 25 -16
27 7 51 56 61 117 78 158 45z m-1233 -33 c7 -13 13 -37 13 -54 l0 -29 -30 34
c-29 34 -37 60 -23 74 11 11 27 1 40 -25z m-637 15 c0 -16 -86 -104 -101 -104
-10 0 -24 -10 -30 -22 -8 -15 -14 -18 -17 -10 -2 7 4 22 14 33 14 16 15 19 2
19 -9 0 -21 -7 -28 -15 -23 -27 -23 -7 -1 24 14 19 34 33 54 36 18 4 43 15 57
25 24 19 50 26 50 14z m276 -54 c7 0 16 -10 19 -22 4 -13 18 -32 32 -43 16
-13 26 -34 30 -62 5 -36 2 -43 -21 -58 l-26 -17 25 -20 c46 -36 24 -118 -32
-118 -23 0 -32 23 -14 34 26 17 18 49 -25 97 -43 48 -56 90 -33 104 12 8 58
-31 69 -60 7 -19 7 -18 19 4 11 20 8 27 -26 67 -56 66 -83 105 -83 121 0 11 7
9 26 -6 15 -12 33 -21 40 -21z m1268 9 c15 -12 26 -30 26 -44 0 -33 -31 -95
-47 -95 -7 0 -20 -12 -30 -27 -20 -33 -33 -43 -52 -43 -10 0 -11 3 -2 14 8 10
5 24 -14 59 -13 26 -20 49 -15 52 5 3 13 -3 19 -12 9 -16 10 -16 11 5 0 12 5
21 12 20 7 -2 12 2 13 9 1 31 14 20 20 -17 5 -30 10 -39 18 -31 7 7 7 21 0 46
-10 32 -9 35 9 35 20 0 20 1 5 18 -33 36 -15 44 27 11z m-1104 -14 c13 -14 29
-25 36 -25 6 0 14 -7 18 -15 3 -8 16 -15 30 -15 51 0 75 -60 37 -94 -22 -20
-41 -14 -41 13 0 25 -29 49 -65 53 -19 2 -34 11 -42 28 l-13 25 0 -31 c0 -40
32 -81 70 -89 16 -3 41 -15 55 -26 40 -32 29 -89 -18 -89 -15 0 -18 5 -14 21
5 17 -3 24 -41 40 -55 23 -72 42 -72 81 0 16 -5 37 -11 47 -9 14 -8 27 7 59
21 49 32 51 64 17z m-386 -26 c34 -40 58 -87 52 -98 -3 -5 -18 -12 -33 -16
-15 -3 -43 -20 -64 -36 -44 -35 -65 -36 -90 -6 -22 27 -25 44 -4 27 23 -19 29
-5 10 23 -12 19 -13 27 -4 33 15 9 39 -22 40 -50 0 -13 3 -16 6 -7 4 10 7 10
13 2 5 -9 18 -6 46 10 63 37 66 48 25 85 -28 25 -47 64 -31 64 5 0 20 -14 34
-31z m744 9 c18 23 23 25 31 12 6 -8 11 -27 11 -42 0 -15 5 -30 10 -33 6 -3
10 1 10 9 0 24 21 30 27 7 4 -17 8 -19 19 -10 8 7 17 10 19 7 11 -11 -9 -39
-36 -53 -15 -8 -29 -25 -31 -37 -2 -15 -11 -24 -25 -26 -18 -3 -24 4 -33 37
-6 22 -18 48 -28 57 -26 26 -62 77 -62 87 0 5 15 -2 34 -16 l33 -26 21 27z
m-833 -28 c-10 -11 -23 -20 -28 -20 -6 0 -2 9 8 20 10 11 23 20 28 20 6 0 2
-9 -8 -20z m1879 -11 c7 -36 -4 -54 -39 -63 -18 -5 -25 -13 -25 -31 0 -18 -5
-25 -19 -25 -44 0 -37 85 11 125 41 35 64 33 72 -6z m393 4 c-7 -16 -20 -42
-30 -60 -19 -35 -4 -60 18 -30 15 21 25 22 25 1 0 -10 6 -14 15 -10 9 3 15 0
15 -9 0 -21 13 -18 28 5 7 12 17 18 23 14 7 -4 0 -17 -16 -34 -32 -34 -18 -48
19 -19 15 12 30 18 34 14 4 -4 -5 -17 -20 -29 -16 -12 -28 -27 -28 -34 0 -23
-20 -12 -42 23 -17 25 -32 36 -60 40 -59 10 -61 23 -16 93 45 68 54 77 35 35z
m-167 -13 c0 -49 -21 -80 -72 -106 -54 -27 -67 -46 -48 -69 10 -12 9 -15 -8
-15 -15 0 -22 9 -27 31 -6 28 -2 36 39 78 25 26 46 53 46 60 0 15 40 50 58 51
7 0 12 -12 12 -30z m-1450 0 c11 -11 20 -27 20 -35 0 -23 18 -18 23 8 2 12 5
-8 6 -45 0 -37 -3 -70 -9 -73 -5 -3 -10 -19 -10 -34 0 -16 -6 -34 -14 -40 -8
-7 -17 -23 -20 -36 -10 -38 -26 -30 -26 12 0 20 -5 51 -12 70 -15 41 -2 55 22
26 10 -13 21 -23 24 -23 12 0 6 47 -9 66 -8 10 -15 33 -15 49 0 17 -4 37 -9
45 -9 13 -6 30 5 30 2 0 13 -9 24 -20z m-721 -22 c-8 -14 -14 -18 -17 -10 -4
13 17 46 25 38 3 -2 -1 -15 -8 -28z m91 17 c-7 -8 -20 -15 -29 -15 -13 1 -13
3 3 15 26 19 42 19 26 0z m55 -16 c11 -17 -1 -21 -15 -4 -8 9 -8 15 -2 15 6 0
14 -5 17 -11z m2250 0 c11 -17 2 -18 -19 -3 -17 12 -17 14 -4 14 9 0 20 -5 23
-11z m-2285 -29 c0 -5 -4 -10 -10 -10 -5 0 -10 5 -10 10 0 6 5 10 10 10 6 0
10 -4 10 -10z m1393 -23 c2 -7 2 -35 0 -63 -4 -43 -10 -54 -33 -68 -16 -9 -37
-16 -49 -16 -18 0 -19 3 -9 25 8 19 8 31 -1 51 -14 31 -9 41 9 19 18 -21 33
-19 25 5 -4 11 -2 20 4 20 6 0 11 -4 11 -10 0 -5 5 -10 10 -10 6 0 10 14 10
30 0 30 14 41 23 17z m-479 -12 c3 -8 12 -12 21 -9 10 4 15 0 15 -10 0 -19 11
-21 28 -4 9 9 12 8 12 -5 0 -22 9 -22 26 1 7 9 14 12 14 6 0 -6 -7 -17 -15
-24 -8 -7 -15 -29 -15 -50 0 -49 -22 -59 -56 -25 -13 13 -24 31 -24 39 0 9 -9
21 -20 28 -11 7 -20 22 -20 34 0 34 23 47 34 19z m961 -5 c8 -14 -13 -42 -48
-65 -17 -11 -31 -24 -30 -30 0 -5 -3 -18 -9 -28 -7 -15 -12 -16 -24 -6 -20 17
-17 56 6 72 10 7 24 25 29 40 8 21 17 27 40 27 16 0 32 -4 36 -10z m-1809 -20
c-16 -5 -44 -24 -62 -41 -19 -18 -37 -29 -41 -25 -14 14 70 76 102 75 l30 -1
-29 -8z m1158 -21 l26 -20 0 21 c0 19 2 20 15 10 9 -7 15 -29 15 -51 0 -33 -4
-41 -26 -49 -59 -23 -100 -5 -68 31 14 16 15 23 6 45 -7 13 -12 27 -12 29 0
11 19 4 44 -16z m-148 -2 c8 3 14 -1 14 -7 0 -9 7 -7 20 5 22 20 26 14 9 -17
-10 -18 -8 -25 10 -39 21 -18 22 -18 2 -28 -48 -26 -101 1 -101 53 0 37 9 51
23 37 5 -5 16 -7 23 -4z m-682 -16 c10 -11 27 -21 39 -23 24 -4 55 -52 56 -89
1 -37 -29 -62 -65 -53 l-29 7 33 -30 c51 -49 42 -92 -22 -107 l-29 -7 27 -28
c14 -15 26 -34 26 -43 0 -16 -38 -52 -63 -61 -8 -3 -7 -10 6 -24 9 -11 17 -28
17 -38 0 -22 -28 -55 -47 -55 -21 0 -15 -16 12 -34 28 -18 31 -42 11 -68 -20
-27 -34 -21 -32 13 1 26 -5 34 -34 50 -61 32 -73 54 -50 89 9 13 14 10 36 -15
24 -29 25 -29 39 -11 21 27 20 31 -20 70 -19 20 -35 42 -35 51 0 22 27 30 55
15 13 -7 28 -9 34 -6 22 14 11 42 -31 78 l-43 37 22 22 c21 21 23 22 41 6 22
-20 52 -22 52 -4 0 7 -16 27 -35 44 -37 33 -44 63 -20 83 14 12 29 11 68 -5
31 -13 19 29 -16 50 -27 17 -33 27 -35 63 -3 46 6 52 32 23z m374 -32 c2 -16
-6 -33 -22 -48 -44 -41 -63 -3 -25 50 24 34 43 33 47 -2z m1258 -33 c-26 -48
-18 -71 22 -70 26 2 33 -3 38 -21 3 -13 3 -28 0 -33 -3 -4 1 -20 9 -35 17 -33
11 -34 -26 -3 -24 21 -26 26 -14 36 23 19 18 30 -12 30 -39 0 -63 27 -63 72 0
44 34 88 53 69 8 -8 7 -20 -7 -45z m-1780 -14 c-26 -5 -19 -28 19 -61 52 -45
44 -103 -16 -115 l-31 -6 31 -29 c36 -34 39 -51 10 -76 -17 -16 -25 -17 -50
-8 -38 15 -38 -1 1 -37 27 -25 29 -31 19 -54 -7 -14 -17 -26 -24 -26 -22 0
-35 -22 -24 -42 12 -22 -3 -48 -27 -48 -12 0 -12 4 -2 21 12 18 9 24 -25 53
-29 24 -38 39 -35 56 5 36 27 36 39 1 12 -34 33 -40 47 -14 10 16 -9 58 -50
112 -40 53 -10 92 33 43 50 -56 83 -32 35 25 -36 44 -49 74 -38 85 7 7 20 4
40 -11 35 -25 48 -26 55 -7 3 7 -12 30 -34 52 -43 42 -50 74 -23 113 l16 22
25 -23 c20 -19 22 -24 9 -26z m1312 23 c16 -34 15 -45 -2 -45 -15 0 -26 21
-26 51 0 27 15 24 28 -6z m332 -5 c9 -17 6 -23 -24 -41 -19 -11 -37 -26 -40
-34 -7 -18 11 -30 27 -18 16 13 98 36 104 29 11 -11 -9 -43 -38 -60 -34 -20
-55 -57 -46 -80 9 -23 22 -20 35 8 9 21 61 56 84 56 19 0 6 -35 -27 -71 -38
-43 -43 -60 -20 -79 12 -10 18 -10 30 0 8 7 15 18 15 24 0 21 48 59 65 52 33
-12 29 -37 -14 -76 -22 -21 -41 -45 -41 -54 0 -9 -4 -16 -10 -16 -5 0 -10 7
-10 15 0 10 -10 15 -29 15 -24 0 -31 6 -40 33 -6 18 -27 49 -46 67 -21 20 -35
44 -35 58 0 13 -12 43 -26 67 -29 50 -26 74 13 105 33 25 59 26 73 0z m-1330
-26 c0 -14 9 -37 20 -51 19 -25 20 -27 3 -52 -17 -26 -26 -62 -43 -171 -17
-108 -29 -135 -53 -111 -8 8 -7 18 3 36 12 23 11 28 -9 55 -25 34 -21 50 14
50 36 0 39 16 10 54 -27 36 -31 76 -7 84 7 2 16 -5 19 -17 6 -22 18 -27 28
-12 3 5 1 12 -5 16 -11 7 -14 128 -3 138 13 14 23 6 23 -19z m300 -18 c0 -25
-20 -46 -63 -64 -37 -16 -37 -16 -37 13 0 17 9 29 28 39 16 8 34 22 41 30 17
20 31 11 31 -18z m609 20 c9 -11 10 -20 1 -35 -16 -31 -40 -27 -40 7 0 43 17
54 39 28z m-801 -42 c-5 -28 -28 -29 -28 -1 0 13 3 27 7 31 10 10 25 -10 21
-30z m331 7 c18 -11 2 -40 -41 -76 -18 -15 -36 -36 -40 -46 -8 -21 -34 -25
-40 -6 -9 22 12 75 41 106 29 31 54 38 80 22z m591 -27 c33 -28 38 -66 10 -72
-19 -3 -73 65 -66 84 8 20 20 18 56 -12z m-466 1 c11 -30 -15 -73 -60 -96 -36
-20 -44 -29 -44 -52 0 -21 -4 -28 -16 -25 -34 6 -38 33 -14 84 31 67 67 104
101 104 15 0 29 -7 33 -15z m144 -27 c16 -24 39 -52 51 -62 34 -31 23 -96 -15
-96 -9 0 -11 11 -7 35 5 31 3 36 -23 45 -40 15 -63 38 -80 79 -18 43 -19 41
16 41 23 0 35 -9 58 -42z m98 27 c3 -8 25 -25 49 -39 47 -28 61 -51 44 -72
-17 -21 -39 -17 -39 7 0 14 -11 25 -35 35 -68 28 -101 84 -50 84 14 0 28 -7
31 -15z m173 -42 c19 -23 20 -29 8 -47 -8 -12 -24 -22 -36 -24 -20 -3 -21 -2
-9 17 10 17 9 23 -10 44 -12 13 -19 27 -15 30 14 15 43 6 62 -20z m-822 -10
c4 -11 -3 -24 -23 -40 -35 -27 -44 -29 -44 -6 0 18 37 63 52 63 5 0 11 -7 15
-17z m-87 -27 c0 -31 -25 -53 -34 -30 -9 23 2 54 20 54 8 0 14 -10 14 -24z
m1158 -9 c3 -17 -36 -75 -50 -76 -14 -1 -8 54 8 77 17 25 37 25 42 -1z m-954
-9 c18 -26 15 -32 -35 -64 -21 -13 -39 -31 -39 -39 0 -19 -19 -19 -26 0 -10
25 4 62 37 94 36 37 43 38 63 9z m370 1 c15 -12 38 -39 52 -61 14 -21 35 -43
48 -48 31 -11 36 -29 20 -61 -24 -47 -64 -46 -64 1 0 25 -9 34 -62 65 -42 25
-64 33 -66 25 -3 -7 -12 -19 -22 -27 -76 -63 -91 -82 -84 -107 8 -33 -18 -36
-40 -4 -25 36 -20 64 18 93 19 14 39 39 46 55 12 29 41 47 59 35 12 -7 51 25
51 42 0 19 13 16 44 -8z m438 -25 c9 -18 9 -30 1 -42 -15 -25 -43 -27 -43 -3
0 11 -4 23 -10 26 -5 3 -10 15 -10 26 0 30 47 26 62 -7z m-198 -39 c31 -30 56
-59 56 -65 0 -15 -38 -50 -55 -50 -10 0 -15 10 -15 30 0 23 -7 33 -30 45 -26
13 -30 21 -30 55 0 22 4 40 9 40 5 0 34 -25 65 -55z m-520 9 c24 -9 19 -37
-10 -64 -18 -18 -23 -31 -19 -47 6 -27 -2 -29 -27 -6 -25 22 -23 71 4 100 23
25 28 26 52 17z m635 -8 c8 -9 10 -28 5 -50 -7 -38 -24 -50 -24 -17 0 11 -9
22 -19 26 -21 6 -34 31 -25 46 8 14 50 11 63 -5z m247 -59 c-28 -48 -26 -77 5
-77 13 0 24 13 35 40 9 22 20 40 24 40 28 0 16 -94 -17 -131 -9 -11 -12 -26
-7 -43 4 -19 2 -26 -9 -26 -18 0 -27 21 -27 65 0 23 -6 38 -19 44 -29 16 -44
62 -31 97 6 16 19 37 28 47 13 15 18 16 30 3 12 -12 11 -20 -12 -59z m-1186
49 c0 -16 -18 -31 -27 -22 -8 8 5 36 17 36 5 0 10 -6 10 -14z m70 -29 c0 -26
-33 -80 -43 -70 -12 11 -8 42 8 74 17 32 35 30 35 -4z m1041 -23 c-3 -45 -9
-57 -22 -49 -10 7 -12 55 -3 80 12 30 29 9 25 -31z m399 2 c0 -12 -13 -40 -30
-62 -49 -64 -34 -91 19 -32 16 18 33 28 39 24 20 -12 13 -35 -18 -63 -16 -14
-30 -35 -30 -45 0 -10 -4 -18 -10 -18 -5 0 -10 5 -10 10 0 6 -11 22 -25 36
-42 42 -46 57 -23 95 27 46 69 90 80 83 4 -3 8 -15 8 -28z m-732 -30 c13 -24
34 -48 48 -55 36 -16 30 -81 -7 -81 -13 0 -19 7 -19 24 0 17 -9 29 -27 38 -25
12 -28 20 -31 66 -2 28 1 52 5 52 4 0 18 -20 31 -44z m263 2 c7 -14 7 -23 -2
-34 -17 -21 -34 -17 -49 11 -10 19 -10 27 -1 39 15 18 38 11 52 -16z m-1051
-29 c0 -16 -4 -29 -9 -29 -10 0 -19 40 -13 58 7 21 22 2 22 -29z m653 -30 c11
-16 26 -29 32 -29 7 0 20 -9 30 -20 18 -20 18 -21 -5 -45 -13 -14 -32 -25 -42
-25 -21 0 -22 4 -8 30 13 25 -19 60 -54 60 -15 0 -33 11 -45 26 -24 30 -26 45
-10 61 14 14 72 -19 102 -58z m-445 23 c2 -13 -6 -31 -21 -45 -14 -12 -27 -33
-29 -47 -3 -23 -4 -23 -20 -6 -26 26 -22 52 15 91 36 37 50 39 55 7z m322 -20
c0 -28 30 -63 66 -78 21 -9 36 -23 40 -38 3 -15 20 -31 40 -41 37 -18 46 -52
19 -75 -18 -15 -18 -15 -30 23 -9 27 -23 38 -85 66 -14 7 -36 32 -49 57 -25
46 -41 57 -41 26 0 -10 -11 -29 -25 -42 -14 -13 -29 -37 -33 -54 -10 -37 -27
-44 -42 -16 -15 28 2 85 34 115 17 15 23 30 19 43 -4 17 1 22 23 27 16 4 34 8
39 10 16 4 25 -5 25 -23z m436 3 c14 -22 15 -30 4 -53 -9 -20 -14 -23 -18 -12
-3 8 -18 27 -35 41 -34 28 -30 49 8 49 15 0 31 -10 41 -25z m-627 -27 c11 -31
10 -35 -24 -66 -25 -23 -34 -39 -30 -52 12 -38 -23 -33 -44 7 -8 17 -8 29 1
50 12 29 67 93 79 93 4 0 12 -15 18 -32z m736 22 c4 -7 12 -7 25 0 10 5 23 10
29 10 14 0 14 -37 1 -45 -5 -3 -10 -11 -10 -17 0 -6 8 -4 18 5 25 23 29 22 36
-15 4 -18 9 -46 13 -61 4 -23 -1 -35 -27 -62 -25 -26 -31 -40 -28 -60 7 -36
-14 -26 -26 12 -7 25 -3 43 18 88 28 61 35 98 10 53 -8 -16 -19 -28 -24 -28
-14 0 -30 35 -30 66 0 15 -7 36 -17 46 -9 10 -11 18 -5 18 6 0 14 -5 17 -10z
m281 -15 c8 -31 -12 -82 -37 -96 -13 -7 -19 -21 -19 -47 l0 -37 -20 37 -20 38
31 65 c33 69 54 82 65 40z m-1268 -8 c4 -20 -37 -76 -55 -76 -19 -1 -16 30 7
67 21 34 43 38 48 9z m-229 -23 c12 -19 21 -44 21 -54 0 -35 -75 -55 -99 -27
-17 21 -2 28 24 11 20 -13 24 -13 35 1 11 14 11 21 -4 46 -15 26 -16 59 -2 59
2 0 13 -16 25 -36z m914 8 c8 -9 20 -29 26 -45 6 -15 21 -31 34 -36 31 -12 40
-36 25 -64 -13 -25 -40 -47 -49 -41 -3 2 -4 14 -2 26 3 17 -6 33 -31 57 -27
26 -33 38 -25 47 8 10 6 19 -5 36 -9 12 -16 26 -16 30 0 14 27 8 43 -10z
m-853 -18 c0 -16 -16 -19 -25 -4 -8 13 4 32 16 25 5 -4 9 -13 9 -21z m1136 -9
c18 -44 18 -76 -1 -101 -13 -18 -14 -15 -15 29 0 26 -4 47 -8 47 -8 0 -32 43
-32 55 0 3 9 5 21 5 13 0 25 -11 35 -35z m-1062 9 c4 -9 4 -19 2 -22 -10 -9
-36 8 -36 23 0 20 26 19 34 -1z m927 -36 c1 -7 1 -16 1 -19 -1 -4 8 -15 18
-24 20 -18 26 -46 13 -58 -7 -8 -72 62 -73 79 0 12 20 34 32 34 4 0 9 -6 9
-12z m-1365 -96 c7 -24 -10 -52 -32 -52 -10 0 -13 7 -8 26 5 18 0 34 -15 54
-11 16 -21 39 -21 52 0 21 4 19 35 -17 19 -22 38 -50 41 -63z m1864 59 c0 -16
-7 -34 -15 -41 -8 -7 -15 -21 -15 -30 0 -25 -10 -50 -21 -50 -4 0 -11 16 -15
35 -5 27 0 44 20 80 29 49 46 51 46 6z m-1223 -8 c4 -9 -1 -29 -10 -45 -22
-38 -21 -45 3 -51 11 -3 20 -12 20 -21 0 -30 -29 -86 -44 -86 -23 0 -20 43 4
65 20 18 20 18 -2 29 -29 14 -33 44 -14 90 16 39 33 46 43 19z m-87 -5 c0 -15
-49 -78 -61 -78 -14 0 -11 43 7 68 16 23 54 30 54 10z m-182 -31 c3 -23 0 -27
-23 -27 -14 0 -24 -4 -20 -9 6 -11 -15 -61 -27 -61 -4 0 -8 11 -8 25 0 17 -8
29 -25 37 -39 18 -33 42 9 35 26 -4 39 -1 52 14 22 25 38 20 42 -14z m1095 -1
c6 -19 6 -31 -2 -39 -14 -14 -17 -10 -24 36 -7 45 11 47 26 3z m-1035 -8 c-3
-34 -20 -42 -26 -13 -5 22 5 45 18 45 7 0 10 -14 8 -32z m362 -22 c0 -28 -9
-39 -47 -61 -25 -15 -36 -16 -44 -8 -9 9 -3 26 27 68 35 51 39 55 51 39 7 -10
13 -27 13 -38z m426 11 c4 -11 20 -35 35 -51 30 -32 34 -56 12 -64 -8 -2 -13
5 -13 17 0 13 -12 27 -32 37 -18 9 -36 22 -40 28 -10 14 -10 60 -1 69 9 9 31
-11 39 -36z m719 -6 c-3 -14 -18 -36 -33 -48 -23 -20 -25 -25 -14 -43 16 -25
15 -30 -3 -30 -42 0 -38 86 5 125 11 10 20 25 20 33 0 12 3 12 16 1 10 -8 13
-21 9 -38z m-1856 13 c2 -10 12 -25 22 -32 11 -7 26 -26 34 -43 18 -35 6 -69
-25 -69 -14 0 -20 -7 -20 -21 0 -30 -18 -59 -37 -59 -13 0 -14 3 -5 12 20 20
14 42 -18 73 -16 16 -30 32 -30 37 0 14 27 9 40 -7 16 -19 59 -19 66 0 4 9 -6
27 -25 44 -22 21 -31 38 -31 61 0 35 22 38 29 4z m954 -10 c35 -26 47 -41 45
-56 -2 -12 -8 -23 -14 -25 -17 -6 -74 46 -74 67 0 10 -4 22 -10 25 -12 7 -13
25 -2 25 4 0 29 -16 55 -36z m-83 -3 c0 -21 -10 -37 -32 -56 -18 -15 -36 -36
-40 -46 -9 -23 -26 -25 -34 -4 -10 25 4 61 30 74 13 8 27 24 30 37 10 37 46
32 46 -5z m740 -14 c0 -4 -12 -24 -27 -44 -23 -30 -25 -38 -16 -64 12 -32 3
-38 -21 -13 -27 26 -21 97 11 134 25 30 27 31 40 14 7 -10 13 -22 13 -27z
m-322 -33 c12 -8 22 -21 22 -29 0 -21 -22 -30 -34 -13 -6 8 -19 17 -30 21 -15
6 -16 10 -6 22 16 19 20 19 48 -1z m-998 -15 c14 -25 9 -61 -7 -67 -8 -2 -13
6 -13 23 0 14 -5 35 -10 46 -8 15 -7 19 4 19 9 0 20 -9 26 -21z m190 -10 c0
-28 -18 -59 -34 -59 -24 0 -27 31 -5 61 22 31 39 30 39 -2z m896 -16 c4 -13 2
-29 -5 -36 -14 -14 -17 -10 -25 35 -6 32 -4 37 9 32 8 -4 18 -17 21 -31z m85
13 c9 -19 8 -29 -5 -47 -9 -13 -16 -32 -16 -43 0 -19 -46 -76 -61 -76 -20 0
-15 32 10 66 17 22 26 45 23 56 -5 21 16 68 30 68 5 0 13 -11 19 -24z m-1296
-17 c43 -38 47 -78 10 -115 -14 -14 -25 -31 -25 -37 0 -16 -20 -37 -36 -37 -6
0 -9 10 -7 24 3 13 -3 35 -12 49 -24 37 -9 55 21 26 19 -18 26 -20 39 -9 21
18 19 27 -15 70 -51 64 -35 82 25 29z m1479 -41 c-13 -13 -18 -33 -16 -65 2
-44 1 -45 -17 -29 -40 36 -33 84 18 137 l26 26 3 -24 c2 -14 -4 -34 -14 -45z
m-1252 27 c6 -14 8 -28 4 -32 -11 -12 -41 12 -44 36 -5 30 26 27 40 -4z m318
-5 c0 -23 -6 -33 -24 -40 -31 -12 -47 -40 -39 -71 6 -21 5 -23 -10 -10 -23 19
-22 68 2 80 10 6 24 24 29 41 14 40 42 40 42 0z m242 -1 c39 -25 48 -36 48
-60 0 -18 -5 -29 -14 -29 -20 0 -46 28 -40 43 2 7 -5 22 -17 33 -16 14 -23 15
-26 7 -3 -7 -13 -13 -24 -13 -22 0 -49 -47 -49 -85 0 -32 -15 -32 -37 1 -16
26 -16 27 4 44 12 10 25 28 28 42 5 21 38 43 69 47 5 1 31 -13 58 -30z m166
19 c7 -7 12 -20 12 -30 0 -10 9 -32 20 -50 23 -37 25 -63 8 -74 -21 -13 -58
47 -58 93 0 23 -4 45 -10 48 -5 3 -10 10 -10 16 0 13 24 11 38 -3z m-54 -24
c10 -25 7 -34 -9 -34 -8 0 -15 4 -15 9 0 5 -3 16 -6 25 -4 10 -1 16 9 16 8 0
18 -7 21 -16z m204 -60 c2 -26 -2 -45 -11 -52 -12 -10 -14 -7 -15 15 0 16 -3
41 -7 56 -7 25 -5 28 11 25 14 -2 20 -13 22 -44z m242 27 c0 -11 -5 -23 -11
-27 -7 -4 -9 -24 -6 -51 4 -43 4 -43 -14 -27 -23 21 -24 43 -2 89 18 39 33 46
33 16z m235 -3 c-4 -13 -18 -34 -31 -49 -27 -28 -30 -49 -12 -67 9 -9 8 -12
-5 -12 -22 0 -40 35 -31 63 6 22 62 83 77 86 5 0 5 -9 2 -21z m-1465 -58 c-12
-30 -46 -53 -62 -43 -4 2 -1 15 8 28 9 14 13 32 10 41 -4 9 -1 23 6 31 10 12
14 11 31 -6 18 -18 19 -23 7 -51z m195 1 c-4 -23 -10 -41 -15 -41 -16 0 -20
34 -9 67 15 47 33 28 24 -26z m105 42 c0 -5 -7 -17 -15 -27 -8 -11 -15 -33
-15 -49 0 -25 -2 -28 -15 -17 -21 18 -19 50 7 77 21 23 38 30 38 16z m763 -15
c6 -18 -14 -59 -27 -55 -16 5 -19 36 -6 52 15 18 27 19 33 3z m-613 -24 c0
-14 -12 -40 -26 -57 -18 -21 -24 -37 -19 -54 6 -25 -12 -32 -33 -11 -18 18
-15 45 10 81 53 75 68 84 68 41z m-382 -19 c2 -16 12 -41 22 -55 14 -20 18
-45 19 -116 0 -50 10 -144 21 -210 25 -143 20 -230 -15 -284 -24 -36 -47 -150
-25 -120 9 12 10 9 6 -13 -4 -15 -9 -47 -13 -72 -3 -25 -10 -45 -16 -45 -6 0
-7 19 -3 50 4 32 3 50 -4 50 -5 0 -10 12 -11 28 -1 21 -4 16 -16 -23 -8 -27
-18 -70 -20 -95 -3 -25 -14 -56 -24 -69 -11 -13 -19 -34 -19 -46 0 -12 -16
-40 -36 -63 -35 -41 -32 -53 7 -32 10 6 19 8 19 4 0 -14 -33 -44 -48 -44 -8 0
-41 -12 -73 -27 -49 -23 -59 -32 -59 -54 0 -34 -25 -68 -40 -53 -12 12 6 64
22 64 4 0 8 17 8 38 -1 33 -2 35 -14 20 -18 -24 -28 -23 -24 3 2 12 12 27 23
33 11 6 22 12 24 13 2 2 -2 9 -8 17 -7 8 -10 24 -6 36 5 16 11 19 33 13 41
-11 71 -7 93 12 21 20 40 76 38 115 -1 20 -2 21 -6 5 -9 -44 -26 -75 -40 -75
-11 0 -13 6 -9 23 15 49 19 97 7 97 -6 0 -11 -15 -12 -32 -2 -51 -13 -83 -32
-86 -21 -4 -21 -2 3 82 11 38 17 72 14 75 -10 10 -24 -24 -24 -59 0 -22 -3
-31 -10 -24 -14 14 14 175 52 298 27 90 30 107 24 185 -19 255 -19 290 0 298
29 10 134 122 134 142 0 42 33 38 38 -4z m65 8 c6 -32 3 -38 -12 -28 -13 8
-15 55 -2 55 5 0 11 -12 14 -27z m477 -4 c0 -16 -20 -51 -45 -79 -13 -14 -25
-34 -27 -45 -2 -11 -10 -20 -18 -20 -11 0 -15 11 -15 40 0 36 3 42 40 61 22
11 41 28 43 37 4 18 22 24 22 6z m158 -1 c25 -25 8 -78 -25 -78 -9 0 -13 15
-13 45 0 46 13 58 38 33z m170 -6 c2 -7 -3 -12 -12 -12 -9 0 -16 7 -16 16 0
17 22 14 28 -4z m-251 -28 c21 -21 23 -28 12 -35 -11 -6 -11 -11 -1 -21 18
-18 15 -28 -8 -28 -23 0 -45 32 -54 78 -7 41 14 43 51 6z m483 -10 c0 -16 -26
-19 -35 -4 -4 6 -4 18 -1 27 5 12 9 13 21 3 8 -7 15 -19 15 -26z m111 2 c-42
-45 -19 -77 42 -57 19 7 41 9 50 5 14 -5 14 -9 -5 -35 -18 -23 -19 -31 -8 -44
17 -20 4 -33 -18 -18 -10 6 -16 22 -15 37 1 22 -2 26 -26 26 -57 0 -77 62 -35
104 24 25 39 7 15 -18z m-443 5 c3 -8 -1 -12 -9 -9 -7 2 -15 10 -17 17 -3 8 1
12 9 9 7 -2 15 -10 17 -17z m-1054 -7 c18 -48 -9 -113 -36 -86 -8 8 -8 15 2
26 7 9 10 26 6 39 -8 35 16 53 28 21z m130 -10 c7 -19 -10 -44 -30 -44 -17 0
-17 2 -2 35 13 29 23 32 32 9z m1191 -26 c13 -13 46 -45 75 -73 28 -27 56 -58
61 -68 22 -38 29 -200 19 -375 -10 -147 -9 -188 5 -274 21 -132 45 -178 92
-178 19 0 25 -8 36 -47 9 -34 21 -52 44 -67 31 -20 47 -66 23 -66 -5 0 -10 7
-10 15 0 25 -29 29 -52 9 -21 -19 -21 -19 -15 13 7 34 -9 93 -24 93 -5 0 -9
-23 -9 -50 0 -83 -37 -77 -100 16 -15 23 -31 53 -35 65 -4 13 -16 35 -25 49
-10 14 -21 54 -25 90 -6 60 -35 143 -55 155 -5 3 -20 42 -35 88 -25 80 -26 86
-15 192 22 220 28 336 19 368 -10 37 -12 67 -3 67 4 0 17 -10 29 -22z m-149 4
c14 -9 34 -91 34 -140 0 -54 -32 -209 -64 -310 -29 -91 -29 -85 16 -240 21
-70 28 -114 24 -138 -3 -19 -9 -49 -12 -67 -5 -30 -2 -36 31 -61 33 -26 36
-32 30 -63 -6 -31 -4 -34 13 -29 11 4 24 1 29 -6 15 -20 22 -57 12 -64 -5 -3
-12 8 -15 25 -4 17 -11 31 -16 31 -6 0 -8 -11 -6 -25 7 -32 -8 -42 -22 -15 -6
11 -16 17 -22 14 -8 -5 -9 3 -5 24 4 17 3 34 -2 36 -5 3 -16 21 -25 41 -9 19
-23 35 -30 35 -23 0 -38 28 -42 77 -2 27 -12 71 -22 100 l-18 51 2 -131 c2
-73 3 -138 3 -144 1 -23 18 -14 31 16 7 19 17 28 26 24 17 -6 18 -35 3 -50 -7
-7 -1 -12 20 -16 35 -7 50 -42 31 -76 -16 -30 -32 -16 -18 15 9 20 9 27 -2 34
-7 4 -19 6 -27 3 -16 -6 -17 -39 -2 -49 7 -4 7 -10 1 -16 -15 -15 -32 0 -32
26 0 13 -9 33 -19 45 l-19 22 5 -40 c4 -26 2 -41 -5 -41 -6 0 -12 10 -14 22
-5 38 -28 33 -28 -6 0 -20 -5 -36 -10 -36 -19 0 -23 30 -11 71 8 27 9 44 2 53
-6 7 -6 17 -1 26 8 13 12 12 25 -5 16 -19 16 -19 9 10 -9 41 -14 171 -7 223 3
26 10 42 19 42 11 0 14 19 14 87 0 49 -4 83 -8 77 -13 -14 -64 -297 -57 -315
3 -8 -1 -34 -10 -58 -8 -24 -15 -54 -15 -67 0 -13 -4 -24 -10 -24 -14 0 -13
47 2 73 7 13 13 61 13 112 1 55 11 135 25 205 22 102 25 140 25 328 0 197 1
212 18 212 10 0 37 18 60 40 43 40 54 45 73 32z m254 -21 c0 -11 -4 -22 -9
-25 -12 -8 -34 21 -26 34 11 17 35 11 35 -9z m-369 -4 c-1 -12 -15 -9 -19 4
-3 6 1 10 8 8 6 -3 11 -8 11 -12z m-666 -8 c9 -14 -5 -279 -15 -279 -9 0 -18
44 -26 131 -9 94 17 188 41 148z m145 -21 c75 -51 86 -95 62 -248 -14 -96 0
-214 35 -292 13 -31 23 -64 20 -75 -4 -16 -6 -16 -12 5 -4 12 -12 22 -17 22
-6 0 -7 -7 -4 -16 20 -52 34 -157 25 -182 -12 -32 -22 -19 -33 41 -10 52 -27
47 -20 -6 5 -32 2 -46 -9 -55 -13 -11 -17 -5 -28 45 l-13 58 -6 -65 c-3 -44
-13 -77 -29 -103 -13 -21 -30 -71 -37 -110 -8 -39 -18 -75 -23 -80 -15 -15
-32 2 -25 27 3 14 -1 27 -10 35 -24 20 -37 4 -30 -35 8 -45 -13 -45 -41 -1
-11 18 -30 33 -43 35 -19 3 -22 -1 -22 -30 -1 -27 -2 -30 -11 -15 -15 26 -3
52 36 70 23 11 37 26 41 44 8 31 22 53 35 53 17 0 9 -30 -17 -70 -17 -26 -24
-46 -19 -57 6 -16 8 -16 16 5 13 35 39 39 65 9 l22 -26 5 32 c6 39 2 47 -24
47 -22 0 -22 0 -9 35 7 18 15 25 25 21 8 -3 21 1 29 10 16 15 33 101 22 111
-3 4 -6 -7 -6 -22 0 -27 -33 -75 -52 -75 -5 0 -8 12 -6 28 2 17 8 26 18 25 23
-4 27 346 5 454 -37 191 -48 331 -26 357 19 23 72 20 111 -6z m307 -15 c-7
-41 -20 -59 -36 -49 -23 14 -2 86 25 86 14 0 16 -7 11 -37z m113 7 c0 -11 -6
-20 -14 -20 -9 0 -12 7 -9 20 3 11 9 20 14 20 5 0 9 -9 9 -20z m305 -64 c11
-84 -23 -359 -52 -425 -36 -81 -46 -55 -29 70 8 57 13 105 11 108 -3 2 0 11 5
21 5 9 14 75 20 145 5 69 12 131 16 136 11 19 23 -3 29 -55z m-1201 14 c21
-53 23 -267 2 -295 -12 -17 -14 -16 -19 16 -28 160 -31 319 -7 319 4 0 15 -18
24 -40z m647 14 c26 -25 27 -28 14 -63 -8 -24 -11 -67 -7 -132 5 -103 -9 -213
-35 -262 -22 -44 -29 -23 -39 123 -13 192 -11 324 5 343 19 23 30 21 62 -9z
m789 1 c0 -8 -7 -15 -15 -15 -16 0 -20 12 -8 23 11 12 23 8 23 -8z m-603 -42
c-16 -16 -17 -16 -17 3 0 11 3 24 7 28 4 3 11 2 17 -4 7 -7 5 -16 -7 -27z m93
-20 c1 -27 7 -59 14 -72 14 -25 13 -48 -5 -181 -13 -91 -18 -112 -28 -105 -15
9 -33 98 -47 235 -14 133 -13 135 7 153 12 9 30 17 40 17 16 0 19 -8 19 -47z
m571 -45 c15 -58 6 -259 -17 -371 -18 -87 -18 -88 4 -156 12 -37 22 -75 22
-85 0 -9 9 -35 21 -57 19 -38 18 -72 -1 -39 -5 8 -16 24 -25 35 -16 19 -16 19
-10 -10 4 -16 16 -40 27 -52 12 -13 17 -23 11 -23 -24 0 -71 70 -83 122 -22
99 -22 154 -5 312 11 97 16 198 13 262 -4 95 -3 104 13 104 13 0 22 -13 30
-42z m-685 -5 c19 -4 22 -14 28 -86 3 -45 6 -116 6 -157 0 -45 10 -113 24
-170 20 -81 23 -108 16 -170 -4 -41 -18 -98 -30 -127 l-22 -52 21 -41 c26 -50
26 -65 1 -90 -21 -21 -62 -25 -132 -14 -31 5 -37 11 -42 38 -11 54 -15 106
-21 265 -5 128 -3 163 11 205 14 41 16 76 11 200 -6 178 -2 201 36 202 15 1
30 4 34 8 4 4 14 4 22 0 9 -4 25 -9 37 -11z m-447 -556 c8 -10 11 -27 7 -41
-10 -42 -47 -96 -64 -96 -10 0 -27 -3 -40 -6 l-22 -6 25 53 c14 30 25 68 25
85 0 17 7 51 15 74 8 23 15 75 15 115 0 121 15 94 20 -38 3 -83 9 -129 19
-140z m840 101 c6 -17 14 -82 18 -145 7 -122 3 -131 -45 -97 -20 14 -22 23
-22 119 0 140 23 198 49 123z m-560 -308 l0 -25 -10 25 c-16 40 -29 169 -22
214 6 35 9 25 19 -74 7 -63 13 -126 13 -140z m635 172 c21 -75 21 -89 1 -72
-8 7 -15 27 -15 46 0 18 -4 44 -10 58 -5 14 -6 26 -1 26 5 0 16 -26 25 -58z
m-726 -120 c2 -23 8 -42 13 -42 6 0 7 -9 4 -20 -6 -20 9 -28 20 -10 9 14 25
12 25 -3 0 -7 -10 -17 -22 -22 -13 -6 -28 -21 -34 -33 -12 -23 -12 -23 -24 15
-6 21 -14 44 -16 52 -4 11 -11 8 -30 -13 -15 -15 -24 -29 -23 -30 2 -2 14 -9
27 -15 17 -9 22 -19 20 -38 -4 -36 -24 -40 -23 -6 0 22 -5 29 -23 31 -21 3
-23 0 -20 -29 2 -18 -2 -34 -8 -36 -20 -7 -22 21 -7 87 25 103 29 111 56 104
21 -5 25 -1 31 26 8 44 30 33 34 -18z m-336 -14 c-10 -22 -11 -21 -11 12 -1
26 2 31 11 22 8 -8 8 -17 0 -34z m1088 33 c0 -10 -25 -21 -48 -21 -15 1 -14 3
2 15 22 17 46 20 46 6z m-142 -21 c7 -11 9 -20 4 -20 -10 0 -32 22 -32 32 0
15 15 8 28 -12z m-1352 -52 c-5 -33 -28 -84 -52 -116 -1 -2 -12 -1 -23 3 -27
8 -27 35 -1 35 20 0 27 11 59 93 16 40 24 33 17 -15z m444 16 c0 -16 -13 -37
-37 -59 -21 -19 -41 -35 -45 -35 -5 0 -8 18 -8 40 0 38 1 39 28 34 23 -5 30
-1 40 20 15 33 22 33 22 0z m1027 -31 c-3 -10 -5 -2 -5 17 0 19 2 27 5 18 2
-10 2 -26 0 -35z m43 5 c0 -9 -4 -20 -10 -23 -6 -4 -10 9 -10 32 0 28 3 34 10
23 5 -8 10 -23 10 -32z m-1415 23 c3 -5 1 -12 -5 -16 -5 -3 -10 -20 -10 -37 0
-27 -21 -57 -42 -58 -3 0 -9 18 -13 41 -5 31 -3 45 11 60 18 20 49 25 59 10z
m1343 -43 c11 -36 18 -45 31 -41 14 6 14 4 -1 -13 -11 -12 -15 -28 -11 -42 3
-13 1 -22 -5 -22 -6 0 -14 17 -18 38 -4 20 -15 54 -26 75 -18 37 -17 62 4 55
6 -2 18 -25 26 -50z m450 40 c7 -7 12 -26 12 -44 0 -27 7 -36 45 -58 37 -22
45 -32 45 -56 0 -34 -5 -37 -26 -15 -14 13 -14 15 2 15 13 0 14 3 4 15 -19 23
-32 6 -25 -31 5 -27 3 -34 -9 -34 -12 0 -14 7 -9 31 4 23 0 36 -19 57 -14 15
-31 43 -38 62 -7 19 -17 39 -22 45 -21 24 16 37 40 13z m-51 -29 c7 -6 13 -29
13 -50 0 -30 3 -37 15 -33 8 4 15 1 15 -5 0 -6 -4 -11 -10 -11 -5 0 -10 -13
-10 -30 0 -16 -4 -30 -10 -30 -5 0 -10 15 -10 33 0 23 -8 41 -26 58 -24 22
-54 69 -54 85 0 9 61 -4 77 -17z m-1019 -51 c15 -15 16 -65 1 -74 -7 -4 -10 3
-9 17 4 40 1 49 -15 49 -18 0 -20 -16 -2 -23 9 -4 9 -7 -1 -15 -7 -5 -10 -16
-6 -27 5 -13 3 -16 -7 -13 -8 3 -13 17 -12 32 1 14 -2 24 -8 21 -12 -8 -12 2
1 26 12 21 40 25 58 7z m727 -30 c15 -36 12 -48 -12 -48 -9 0 -13 6 -9 15 3 8
1 26 -4 40 -15 38 8 31 25 -7z m-1018 -10 c-3 -8 -6 -5 -6 6 -1 11 2 17 5 13
3 -3 4 -12 1 -19z m130 -10 c-3 -7 -5 -2 -5 12 0 14 2 19 5 13 2 -7 2 -19 0
-25z m-633 6 c21 -21 20 -37 -4 -59 -11 -10 -20 -24 -20 -32 0 -7 -4 -13 -10
-13 -5 0 -10 -7 -10 -15 0 -8 -7 -15 -15 -15 -22 0 -19 41 3 47 23 6 46 63 32
77 -8 8 -14 6 -20 -4 -8 -13 -10 -13 -10 1 0 32 29 39 54 13z m1476 -17 c-1
-21 -1 -21 -15 -3 -8 10 -12 23 -9 28 9 14 24 -2 24 -25z m-763 1 c-3 -8 -6
-5 -6 6 -1 11 2 17 5 13 3 -3 4 -12 1 -19z m-827 -4 c0 -8 -4 -12 -10 -9 -5 3
-10 10 -10 16 0 5 5 9 10 9 6 0 10 -7 10 -16z m42 -6 c7 -20 -3 -56 -16 -61
-7 -3 -19 -1 -27 4 -12 8 -11 11 4 20 9 5 17 19 17 29 0 22 16 27 22 8z m1955
-20 c-3 -8 -6 -5 -6 6 -1 11 2 17 5 13 3 -3 4 -12 1 -19z m-17 -3 c0 -8 -4
-15 -10 -15 -5 0 -10 7 -10 15 0 8 5 15 10 15 6 0 10 -7 10 -15z m-1352 -12
c-9 -10 -19 -28 -22 -40 -8 -24 -27 -35 -45 -23 -30 18 14 80 56 80 24 0 25
-1 11 -17z m59 -18 c-12 -19 -30 -34 -39 -35 -22 0 -22 3 -3 40 11 21 23 30
40 30 l24 0 -22 -35z m80 17 c-10 -10 -17 -24 -17 -30 0 -7 -9 -12 -20 -12
-24 0 -25 4 -4 35 9 14 25 25 37 25 19 0 19 -1 4 -18z m73 11 c0 -10 -42 -53
-52 -53 -13 0 -9 22 9 42 16 18 43 25 43 11z m-550 -12 c0 -5 -7 -14 -15 -21
-8 -7 -15 -21 -15 -31 0 -12 -7 -19 -20 -19 -35 0 -25 46 15 68 24 14 35 15
35 3z m57 -31 c-13 -24 -28 -39 -37 -37 -32 6 5 77 41 77 16 0 16 -3 -4 -40z
m103 37 c0 -21 -35 -67 -51 -67 -23 0 -24 18 -3 48 12 18 54 32 54 19z m88
-14 c-8 -10 -18 -26 -21 -35 -7 -21 -57 -25 -57 -5 0 28 31 57 62 57 29 0 30
-1 16 -17z m817 -8 c14 -13 25 -31 25 -40 0 -24 -38 -18 -46 8 -3 12 -13 30
-22 40 -25 28 14 22 43 -8z m70 0 c29 -28 32 -55 7 -55 -10 0 -23 13 -32 33
-7 17 -15 35 -18 40 -9 17 21 5 43 -18z m160 -1 c28 -30 30 -40 13 -50 -6 -4
-21 5 -35 22 -41 52 -22 76 22 28z m-1432 -14 c-3 -10 -11 -24 -19 -31 -22
-18 -30 18 -9 41 21 23 35 18 28 -10z m1137 15 c16 -19 0 -19 -26 0 -16 12
-16 14 -3 15 9 0 22 -7 29 -15z m219 -9 c13 -14 20 -29 16 -35 -12 -21 -31
-11 -47 24 -19 42 -3 48 31 11z m170 -2 c24 -30 27 -54 9 -54 -12 0 -68 62
-68 74 0 17 41 2 59 -20z m64 9 c22 -26 25 -57 6 -61 -11 -2 -23 9 -33 29 -23
46 -5 67 27 32z m-507 -34 c294 -149 286 -570 -14 -712 -61 -29 -75 -32 -167
-32 -93 0 -105 2 -167 33 -88 43 -166 127 -199 213 -19 51 -24 82 -23 149 1
113 27 181 102 261 91 98 171 131 310 125 81 -3 101 -7 158 -37z m579 15 c28
-30 32 -54 11 -54 -13 0 -56 57 -56 74 0 14 23 4 45 -20z m79 0 c20 -20 21
-54 1 -54 -8 0 -15 7 -15 15 0 8 -9 20 -20 27 -11 7 -20 16 -20 20 0 14 38 8
54 -8z m-1884 -19 c0 -16 -6 -25 -15 -25 -16 0 -19 9 -9 34 9 25 24 19 24 -9z
m1956 8 c18 -24 17 -43 -1 -43 -8 0 -15 5 -15 12 0 6 -7 20 -17 30 -15 17 -15
18 2 18 10 0 24 -8 31 -17z m70 -40 c-4 -4 -14 1 -22 11 -22 31 -17 43 8 19
12 -13 18 -26 14 -30z m44 22 c6 -8 8 -20 4 -26 -5 -9 -11 -7 -21 6 -23 33 -9
51 17 20z m-1921 -25 c9 0 11 -8 6 -27 -5 -23 -4 -25 9 -14 22 18 59 -15 45
-41 -7 -14 -6 -18 6 -18 17 0 20 -16 5 -25 -17 -10 -11 -25 7 -18 12 5 15 2
10 -9 -3 -10 1 -19 10 -22 14 -6 13 -9 -3 -28 -19 -21 -19 -21 4 -16 25 7 30
-10 10 -31 -11 -11 -10 -13 5 -8 9 4 17 2 17 -2 0 -5 -8 -12 -17 -16 -27 -12
51 -24 109 -18 33 4 58 1 83 -12 71 -33 113 4 92 82 -9 34 -7 46 10 81 23 46
77 112 93 112 18 0 11 -19 -15 -42 -24 -21 -24 -22 -8 -41 17 -18 17 -19 0
-32 -10 -7 -17 -17 -16 -21 1 -5 1 -11 -1 -14 -1 -3 -4 -32 -6 -65 -6 -72 -23
-90 -94 -100 -48 -7 -61 -17 -40 -30 6 -3 10 -20 10 -36 0 -39 44 -96 88 -115
27 -11 33 -18 29 -35 -4 -13 0 -22 11 -26 40 -15 58 -85 26 -97 -22 -9 -33 1
-27 24 12 45 -104 150 -166 150 -23 0 -108 37 -117 51 -9 15 -21 10 -27 -11
-9 -36 -50 -20 -119 47 -17 16 -18 15 -18 -14 0 -35 -47 -83 -80 -83 -40 0
-50 -11 -50 -56 0 -33 4 -46 18 -51 9 -4 20 -11 24 -17 24 -34 -14 -35 -48 -1
-20 20 -24 33 -22 72 3 45 6 49 41 67 29 14 36 22 31 35 -18 41 -16 93 4 121
l21 28 -21 14 c-19 13 -20 18 -10 48 7 18 12 49 12 68 0 29 -2 33 -15 22 -8
-7 -15 -21 -15 -31 0 -23 -26 -25 -34 -3 -7 19 11 129 26 159 16 32 51 56 73
50 11 -3 26 -5 34 -5z m468 -6 c8 -23 -9 -48 -36 -52 -12 -2 -19 -7 -16 -12 3
-5 -6 -17 -19 -28 -18 -13 -22 -22 -14 -30 7 -7 4 -16 -8 -28 -18 -18 -27 -74
-11 -74 4 0 7 -13 7 -30 0 -25 -4 -30 -25 -30 -14 0 -34 9 -44 19 -12 12 -21
15 -23 9 -3 -8 -9 -8 -19 -2 -8 5 -27 9 -44 10 -62 2 -64 4 -74 42 -6 20 -20
55 -31 77 -27 53 -25 124 4 130 36 8 97 12 224 13 105 2 124 0 129 -14z m959
-7 c-8 -32 14 -60 45 -55 18 2 25 10 27 31 4 35 26 30 30 -6 2 -15 7 -27 11
-27 4 0 7 -24 6 -54 0 -58 -22 -96 -55 -96 -13 0 -16 -6 -13 -25 l5 -24 37 27
c20 14 46 37 58 49 25 26 35 28 64 13 25 -14 24 -38 -3 -67 -21 -23 -22 -26
-7 -51 10 -18 22 -26 35 -24 81 15 101 14 129 -11 24 -20 29 -33 33 -85 4 -52
1 -63 -17 -78 -11 -10 -21 -25 -21 -32 0 -8 -11 -27 -25 -44 -14 -16 -25 -35
-25 -42 0 -8 -9 -25 -21 -40 -23 -29 -59 -35 -59 -10 0 16 65 119 81 130 5 3
9 15 9 28 0 12 6 28 13 35 6 8 8 12 2 9 -5 -2 -28 -12 -49 -22 -26 -12 -50
-16 -73 -11 -18 3 -33 8 -33 10 0 3 9 22 20 42 22 41 24 61 11 82 -7 11 -12 4
-20 -26 -6 -22 -20 -52 -31 -65 -13 -18 -16 -28 -8 -36 7 -7 6 -24 -6 -58 -9
-26 -16 -64 -16 -85 0 -44 -21 -70 -50 -62 -16 4 -18 8 -9 19 6 8 9 25 7 38
-4 17 -1 23 9 19 21 -8 16 48 -8 76 -11 13 -21 22 -23 20 -10 -11 -17 -91 -8
-85 6 4 8 -2 4 -16 -5 -21 -6 -21 -12 -2 -6 16 -10 13 -29 -23 -14 -28 -30
-45 -47 -49 -32 -8 -41 1 -22 23 18 21 42 67 53 101 6 22 5 22 -14 10 -11 -7
-20 -17 -19 -23 3 -24 -15 -64 -33 -68 -11 -3 -19 -14 -19 -26 0 -20 -5 -21
-112 -21 -82 1 -108 3 -95 11 9 5 22 7 27 4 6 -3 10 -1 10 6 0 10 90 121 146
180 12 13 13 18 2 21 -10 4 -10 8 -2 19 7 8 15 39 18 69 12 93 17 114 27 99 4
-8 3 -19 -3 -26 -6 -8 -6 -13 -1 -13 13 0 12 -60 -1 -60 -6 0 -3 -7 7 -14 18
-14 18 -15 0 -25 -17 -10 -16 -10 5 -11 12 0 22 -6 22 -14 0 -22 40 -66 61
-66 24 0 67 64 74 110 5 34 5 34 -15 -10 -25 -52 -49 -82 -61 -74 -5 3 -3 17
5 32 49 89 58 126 12 47 -27 -45 -39 -54 -51 -35 -4 6 12 31 34 55 49 54 55
77 7 29 -52 -52 -66 -40 -16 13 30 31 33 37 10 15 -20 -17 -42 -32 -50 -32
-10 1 -6 8 10 22 24 20 24 20 3 14 -13 -4 -23 -4 -23 -1 0 4 10 15 23 26 l22
18 -24 1 c-19 0 -21 3 -11 14 6 8 24 16 38 19 23 3 24 4 9 11 -11 5 -28 4 -43
-4 -13 -8 -27 -10 -31 -7 -3 4 1 7 10 7 10 0 17 8 17 20 0 12 -7 20 -17 20
-13 0 -14 3 -6 11 7 7 9 26 6 45 -4 25 -1 40 12 54 14 15 15 23 6 34 -11 13
-7 40 12 64 15 19 20 14 13 -11z m-59 -12 c6 -14 8 -27 4 -29 -4 -3 -6 -32 -4
-64 3 -46 0 -62 -13 -73 -22 -18 -36 2 -54 75 -7 30 -19 57 -26 60 -8 3 -14
12 -14 21 0 8 -4 15 -10 15 -5 0 -10 5 -10 10 0 6 26 10 58 10 51 0 58 -3 69
-25z m113 1 c0 -8 -5 -18 -11 -22 -14 -8 -33 11 -25 25 10 16 36 13 36 -3z
m119 -3 c9 -16 12 -16 20 -3 9 12 11 12 17 -3 3 -9 10 -14 16 -11 14 9 68 -17
68 -33 0 -7 6 -13 13 -11 16 3 57 -20 57 -32 0 -6 -7 -10 -16 -10 -14 0 -15
-2 -3 -17 11 -13 11 -17 1 -21 -10 -3 -10 -7 0 -20 11 -12 11 -16 0 -20 -10
-3 -10 -7 -1 -19 10 -12 10 -16 -1 -23 -11 -7 -11 -11 -1 -24 12 -14 8 -16
-32 -16 l-45 0 2 59 c3 58 2 59 -25 65 -16 3 -38 15 -49 26 -11 11 -26 19 -32
18 -8 -2 -12 7 -11 25 1 15 -2 27 -6 27 -10 0 -21 47 -13 55 11 11 31 4 41
-12z m-1864 -75 c19 -64 32 -322 19 -393 -7 -40 -10 -10 -14 145 -5 172 -8
201 -28 244 -26 58 -26 56 -7 56 9 0 20 -20 30 -52z m2141 25 c11 -27 17 -492
7 -533 -8 -28 -11 -8 -16 105 -18 390 -20 445 -9 445 5 0 13 -8 18 -17z
m-2081 -235 c5 -122 10 -166 19 -161 11 7 57 5 65 -3 2 -2 -7 -13 -21 -23 -21
-17 -26 -31 -31 -87 -2 -36 -10 -71 -15 -76 -8 -8 -9 7 -6 48 5 64 -9 51 -21
-18 -3 -21 -11 -38 -17 -38 -6 0 -7 7 -3 18 13 30 17 352 7 462 -5 58 -7 110
-4 115 11 18 21 -66 27 -237z m2135 12 c4 -248 1 -324 -10 -290 -11 33 -11
531 -1 505 5 -11 10 -108 11 -215z m54 150 c20 -87 21 -281 2 -374 -8 -37 -17
-71 -20 -74 -3 -3 -6 60 -6 140 0 80 -3 200 -7 268 -7 140 5 156 31 40z
m-2158 -42 c6 -57 9 -67 16 -49 8 23 9 23 28 6 12 -11 20 -30 19 -49 -1 -42
-12 -77 -23 -76 -5 1 -16 -10 -26 -25 -10 -15 -20 -23 -24 -17 -3 5 -9 74 -12
152 -5 103 -4 141 4 136 6 -3 14 -39 18 -78z m2231 -150 c-3 -64 -10 -125 -16
-135 -8 -13 -10 30 -11 163 0 99 3 184 8 188 14 14 24 -99 19 -216z m-2349 17
c0 -44 -3 -102 -8 -130 -5 -34 -7 11 -7 135 0 126 2 168 7 130 5 -30 8 -91 8
-135z m2392 10 c0 -13 -4 -27 -10 -30 -6 -4 -10 8 -10 30 0 22 4 34 10 30 6
-3 10 -17 10 -30z m-2430 -14 c10 -21 4 -51 -11 -51 -5 0 -9 16 -9 35 0 40 5
43 20 16z m786 -48 c-4 -9 -1 -20 6 -25 11 -8 11 -11 0 -15 -10 -4 -9 -9 5
-20 13 -10 15 -16 6 -19 -18 -8 -16 -27 1 -21 17 7 28 -16 20 -38 -4 -9 0 -15
9 -15 13 0 107 -128 107 -145 0 -10 -69 -5 -75 5 -4 6 -1 17 5 25 10 12 9 15
-3 15 -21 0 -45 42 -28 48 6 2 11 8 11 14 0 7 -5 7 -13 -1 -17 -13 -27 -5 -27
24 0 17 -9 25 -37 33 -39 12 -76 63 -53 70 6 2 2 11 -9 19 -31 21 -27 51 7 56
63 9 74 8 68 -10z m-566 -6 c0 -17 -35 -67 -46 -67 -20 0 -17 27 6 50 17 17
40 27 40 17z m170 -122 c17 -9 30 -20 30 -25 0 -6 33 -10 74 -10 57 0 79 -4
92 -17 9 -9 26 -19 38 -20 55 -9 91 -62 62 -92 -14 -14 -18 -14 -26 -2 -7 12
-11 12 -23 2 -12 -9 -16 -9 -19 1 -4 11 -8 11 -20 0 -13 -10 -17 -10 -21 0 -4
10 -8 10 -16 -2 -7 -10 -11 -11 -11 -2 0 6 -7 12 -15 12 -8 0 -15 -6 -15 -12
0 -9 -3 -10 -8 -2 -8 12 -40 13 -59 1 -6 -4 -14 -1 -16 5 -4 10 -8 10 -15 -1
-6 -8 -12 -9 -16 -3 -8 13 -48 12 -57 -1 -9 -12 -31 1 -24 14 4 5 2 9 -4 9 -5
0 -11 -5 -13 -12 -7 -19 -26 0 -33 33 -5 20 -11 29 -21 25 -10 -4 -14 2 -14
19 0 27 9 32 27 14 8 -8 13 -8 17 0 4 6 1 11 -6 11 -7 0 1 8 17 18 17 11 36
26 44 35 16 21 15 21 51 2z m1664 -27 c-3 -4 -14 -8 -25 -8 -11 0 -19 -6 -18
-12 1 -7 -3 -26 -9 -41 -7 -16 -12 -32 -12 -36 0 -4 -13 -22 -29 -40 -28 -32
-29 -32 -36 -9 -12 40 -11 68 2 68 15 0 17 17 3 22 -6 2 -8 16 -4 33 5 29 7
30 69 31 35 0 62 -3 59 -8z m-1987 -40 c-3 -8 -6 -5 -6 6 -1 11 2 17 5 13 3
-3 4 -12 1 -19z m666 -21 c30 -35 31 -36 17 -71 -6 -16 -17 -26 -30 -26 -19 0
-20 1 -4 24 14 23 14 28 -1 59 -9 19 -26 40 -38 46 -21 11 -21 11 3 5 14 -3
37 -20 53 -37z m1428 -37 c-7 -23 -19 -44 -27 -47 -24 -9 -27 3 -9 31 14 21
15 29 5 41 -6 8 -9 23 -5 36 l7 21 21 -20 c19 -19 19 -25 8 -62z m-64 -10 c-9
-23 -13 -26 -20 -15 -9 17 9 58 23 50 4 -3 3 -19 -3 -35z m-1626 -69 c-8 -5
-11 -16 -8 -25 7 -18 -9 -21 -32 -7 -17 11 -7 41 14 41 8 0 15 5 15 12 0 9 3
9 12 0 10 -10 10 -15 -1 -21z m64 2 c-5 -10 -7 -24 -6 -30 2 -16 -25 -17 -35
-2 -3 6 4 21 17 34 27 25 35 25 24 -2z m-302 11 c-7 -3 -9 -12 -6 -21 4 -11 2
-14 -8 -11 -8 3 -15 12 -17 21 -3 12 3 17 20 16 13 0 18 -3 11 -5z m57 -19 c0
-26 -14 -33 -25 -15 -9 14 1 40 15 40 5 0 10 -11 10 -25z m99 -1 c-9 -11 -15
-12 -23 -4 -8 8 -7 13 4 20 20 12 33 1 19 -16z m271 17 c0 -6 -5 -13 -10 -16
-7 -4 -7 -13 0 -26 9 -16 7 -19 -10 -19 -28 0 -36 27 -15 50 19 21 35 26 35
11z m-326 -16 c-4 -8 -10 -12 -15 -9 -14 8 -10 24 6 24 9 0 12 -6 9 -15z m259
3 c-4 -7 -6 -21 -5 -30 2 -10 -2 -18 -8 -18 -17 0 -23 29 -10 45 15 18 34 20
23 3z m117 -3 c-6 -8 -9 -23 -5 -35 9 -27 -11 -26 -26 2 -10 18 -8 24 7 35 24
17 39 17 24 -2z m75 -11 c-10 -7 -15 -20 -12 -28 9 -22 -12 -31 -30 -13 -20
19 -11 45 19 56 30 11 46 1 23 -15z m95 6 c-14 -11 -29 -20 -33 -20 -5 0 -5
-9 -2 -20 4 -13 2 -20 -7 -20 -17 0 -38 20 -38 37 0 16 48 42 80 42 l25 1 -25
-20z m110 16 c0 -2 -16 -14 -36 -25 -23 -14 -34 -27 -30 -36 7 -20 -10 -28
-34 -15 -31 17 -24 34 23 57 38 20 77 29 77 19z m1150 -28 c0 -6 -7 -5 -15 2
-8 7 -15 17 -15 22 0 6 7 5 15 -2 8 -7 15 -17 15 -22z m35 23 c3 -5 1 -12 -4
-15 -5 -3 -11 1 -15 9 -6 16 9 21 19 6z m-1155 -11 c0 -5 -4 -10 -10 -10 -5 0
-10 -11 -10 -24 0 -33 -18 -42 -38 -22 -16 16 -15 19 13 42 32 26 45 30 45 14z
m1076 -27 c-4 -4 -11 -1 -16 7 -16 25 -11 35 7 17 9 -9 13 -20 9 -24z m-1030
-5 c-1 -22 -7 -33 -16 -33 -22 0 -25 37 -4 52 23 17 22 18 20 -19z m376 15
c10 -9 18 -25 18 -35 0 -28 -34 -19 -38 10 -2 12 -8 22 -13 22 -5 0 -9 5 -9
10 0 15 21 12 42 -7z m68 -14 c6 -10 10 -22 10 -28 0 -18 -27 -12 -33 7 -2 9
-8 25 -12 35 -10 24 22 12 35 -14z m330 -14 c0 -14 -4 -25 -10 -25 -5 0 -10 9
-10 19 0 11 -4 23 -10 26 -20 12 -10 26 10 15 12 -6 20 -21 20 -35z m164 3
c-9 -14 -24 2 -24 25 1 21 1 21 15 3 8 -10 12 -23 9 -28z m46 22 c9 -16 8 -20
-5 -20 -8 0 -15 9 -15 20 0 11 2 20 5 20 2 0 9 -9 15 -20z m-660 -5 c14 -17 7
-45 -12 -45 -8 0 -19 14 -25 30 -10 26 -9 30 7 30 9 0 23 -7 30 -15z m195 -15
c0 -16 -6 -26 -17 -28 -12 -2 -18 3 -18 15 0 11 -6 25 -12 32 -11 10 -7 12 17
9 24 -2 30 -8 30 -28z m60 14 c19 -19 15 -38 -8 -42 -11 -2 -17 3 -17 15 0 11
-5 24 -12 31 -9 9 -8 12 4 12 9 0 24 -7 33 -16z m53 4 c16 -16 15 -48 -2 -48
-8 0 -16 13 -18 30 -5 32 1 37 20 18z m82 -3 c7 -8 10 -22 6 -30 -7 -20 -36
-19 -36 1 0 9 -8 23 -17 30 -16 12 -16 13 8 14 15 0 32 -7 39 -15z m124 -1 c3
-9 3 -22 -2 -29 -5 -10 -12 -6 -24 16 -16 28 -16 29 1 29 11 0 22 -7 25 -16z
m56 -9 c0 -28 -15 -34 -24 -9 -10 25 -7 34 9 34 9 0 15 -9 15 -25z m-830 -10
c0 -29 -34 -36 -44 -9 -10 27 -7 34 19 34 20 0 25 -5 25 -25z m150 -1 c0 -21
-4 -25 -22 -22 -31 4 -36 35 -6 41 13 2 24 5 26 6 1 0 2 -11 2 -25z m55 1 c0
-31 -30 -30 -31 0 -2 19 2 25 15 23 9 -2 16 -12 16 -23z m-125 -5 c0 -15 -7
-20 -25 -20 -14 0 -29 8 -35 20 -10 18 -8 20 25 20 28 0 35 -4 35 -20z m-710
-50 c0 -5 -5 -10 -11 -10 -5 0 -7 5 -4 10 3 6 8 10 11 10 2 0 4 -4 4 -10z m45
0 c3 -5 -1 -10 -10 -10 -9 0 -13 5 -10 10 3 6 8 10 10 10 2 0 7 -4 10 -10z
m55 0 c0 -5 -7 -10 -16 -10 -8 0 -12 5 -9 10 3 6 10 10 16 10 5 0 9 -4 9 -10z
m50 0 c0 -5 -7 -10 -16 -10 -8 0 -12 5 -9 10 3 6 10 10 16 10 5 0 9 -4 9 -10z
m50 0 c0 -5 -7 -10 -16 -10 -8 0 -12 5 -9 10 3 6 10 10 16 10 5 0 9 -4 9 -10z
m60 0 c0 -5 -7 -10 -15 -10 -8 0 -15 5 -15 10 0 6 7 10 15 10 8 0 15 -4 15
-10z m50 0 c0 -5 -7 -10 -15 -10 -8 0 -15 5 -15 10 0 6 7 10 15 10 8 0 15 -4
15 -10z m50 0 c0 -5 -7 -10 -16 -10 -8 0 -12 5 -9 10 3 6 10 10 16 10 5 0 9
-4 9 -10z m50 0 c0 -5 -7 -10 -16 -10 -8 0 -12 5 -9 10 3 6 10 10 16 10 5 0 9
-4 9 -10z m70 1 c0 -13 -37 -24 -51 -15 -8 4 -7 9 2 15 19 12 49 11 49 0z m70
0 c0 -9 -24 -21 -41 -21 -5 0 -9 7 -9 15 0 9 9 15 25 15 14 0 25 -4 25 -9z
m60 0 c0 -6 -5 -13 -10 -16 -15 -9 -43 3 -35 15 8 13 45 13 45 1z m147 -4 c-4
-14 -127 -22 -127 -9 0 17 13 20 72 21 42 0 58 -4 55 -12z m61 1 c-5 -15 -48
-24 -48 -10 0 14 12 22 33 22 10 0 17 -5 15 -12z m57 3 c3 -5 1 -13 -5 -16
-15 -9 -43 3 -35 15 8 13 32 13 40 1z m63 -8 c2 -8 -5 -13 -17 -13 -12 0 -21
6 -21 16 0 18 31 15 38 -3z m62 -4 c0 -11 -27 -12 -34 0 -3 4 -3 11 0 14 8 8
34 -3 34 -14z m91 -2 c-13 -13 -26 -3 -16 12 3 6 11 8 17 5 6 -4 6 -10 -1 -17z
m-41 9 c0 -11 -19 -15 -25 -6 -3 5 1 10 9 10 9 0 16 -2 16 -4z m95 -6 c-3 -5
-10 -10 -16 -10 -5 0 -9 5 -9 10 0 6 7 10 16 10 8 0 12 -4 9 -10z m45 0 c0 -5
-4 -10 -9 -10 -6 0 -13 5 -16 10 -3 6 1 10 9 10 9 0 16 -4 16 -10z m47 4 c-3
-3 -12 -4 -19 -1 -8 3 -5 6 6 6 11 1 17 -2 13 -5z m50 0 c-3 -3 -12 -4 -19 -1
-8 3 -5 6 6 6 11 1 17 -2 13 -5z m50 0 c-3 -3 -12 -4 -19 -1 -8 3 -5 6 6 6 11
1 17 -2 13 -5z m-1377 -59 c0 -14 -4 -25 -9 -25 -12 0 -23 29 -15 41 10 18 24
9 24 -16z m90 16 c0 -20 -13 -41 -21 -35 -15 9 -10 44 6 44 8 0 15 -4 15 -9z
m74 -7 c10 -27 7 -44 -9 -44 -8 0 -15 6 -15 14 0 8 -3 21 -6 30 -4 10 -1 16 9
16 8 0 18 -7 21 -16z m86 9 c0 -5 3 -18 6 -30 9 -33 -24 -30 -36 3 -6 14 -10
27 -10 30 0 7 40 4 40 -3z m84 -19 c4 -15 4 -29 1 -32 -10 -11 -40 14 -43 37
-5 33 34 28 42 -5z m80 10 c12 -31 7 -45 -16 -42 -31 4 -40 58 -10 58 11 0 23
-7 26 -16z m87 -12 c6 -17 5 -24 -6 -28 -25 -10 -45 4 -45 31 0 21 4 26 21 23
12 -2 26 -13 30 -26z m517 -1 c2 -13 -1 -28 -7 -34 -15 -15 -41 10 -41 40 0
20 4 24 23 21 14 -2 23 -11 25 -27z m65 2 c6 -32 -5 -48 -27 -40 -24 9 -21 67
3 67 12 0 20 -9 24 -27z m146 18 c18 -12 4 -51 -19 -51 -21 0 -35 41 -17 52
15 10 19 10 36 -1z m79 -24 c3 -22 -1 -27 -17 -27 -17 0 -21 6 -21 31 0 24 4
30 18 27 10 -2 18 -14 20 -31z m202 21 c0 -17 -18 -44 -24 -37 -8 7 5 49 15
49 5 0 9 -6 9 -12z m-910 -11 c0 -24 -26 -51 -44 -44 -16 6 -22 38 -9 50 12
12 53 7 53 -6z m65 -12 c0 -22 -31 -33 -47 -17 -17 17 -1 44 24 40 15 -2 23
-10 23 -23z m71 9 c-3 -9 -6 -20 -6 -25 0 -5 -9 -9 -20 -9 -15 0 -20 7 -20 25
0 20 5 25 26 25 20 0 25 -4 20 -16z m62 -7 c4 -22 -27 -35 -39 -16 -5 8 -9 20
-9 27 0 20 44 10 48 -11z m72 -2 c0 -20 -5 -25 -25 -25 -14 0 -25 4 -25 9 0 5
-3 16 -6 25 -5 13 1 16 25 16 26 0 31 -4 31 -25z m78 -3 c5 -30 -26 -42 -44
-17 -23 31 -17 47 14 43 19 -2 28 -9 30 -26z m210 6 c-3 -23 -48 -41 -48 -20
0 6 -3 17 -6 26 -5 13 1 16 26 16 27 0 31 -3 28 -22z m262 9 c0 -14 -20 -37
-32 -37 -4 0 -8 11 -8 25 0 18 5 25 20 25 11 0 20 -6 20 -13z"/>
<path d="M2699 4539 c-48 -52 -31 -69 23 -24 l30 25 35 -21 c46 -29 56 -15 15
22 -41 37 -67 37 -103 -2z"/>
<path d="M2545 4107 c-6 -14 -10 -15 -21 -6 -11 9 -14 8 -14 -4 0 -8 6 -20 14
-26 17 -14 40 10 33 36 -4 17 -4 17 -12 0z"/>
<path d="M2710 4050 c0 -11 -7 -32 -16 -45 -12 -18 -13 -25 -4 -25 29 0 54 70
30 85 -5 3 -10 -3 -10 -15z"/>
<path d="M2420 4018 c0 -8 7 -21 15 -28 19 -16 19 -1 0 24 -12 16 -15 17 -15
4z"/>
<path d="M2431 1648 c-77 -31 -161 -112 -197 -190 -25 -55 -29 -75 -29 -153 0
-78 4 -98 29 -152 30 -66 105 -147 165 -177 57 -30 156 -46 219 -35 121 19
231 99 282 203 87 180 12 400 -168 488 -58 29 -78 33 -157 35 -73 2 -100 -1
-144 -19z m159 -9 c22 7 32 6 41 -5 8 -9 21 -13 34 -10 15 4 31 -2 49 -19 15
-14 31 -23 36 -20 5 3 17 -6 26 -21 10 -14 28 -30 41 -35 15 -6 23 -17 23 -32
0 -14 10 -32 24 -42 19 -15 24 -25 19 -47 -4 -19 -1 -29 10 -34 13 -4 13 -11
5 -36 -8 -22 -8 -36 0 -49 13 -20 6 -49 -10 -49 -6 0 -8 -11 -6 -25 6 -30 -1
-31 -50 -7 -20 11 -72 32 -115 47 -53 19 -75 31 -68 38 7 7 7 15 1 23 -8 8 18
24 100 60 60 27 106 50 100 52 -13 5 -183 -68 -192 -82 -5 -7 -13 -6 -24 5
-15 16 -12 22 45 94 34 42 66 86 73 98 23 44 -21 -4 -83 -89 -43 -60 -64 -81
-75 -77 -11 4 -14 14 -10 32 10 45 27 202 24 213 -5 13 -23 -94 -33 -184 -4
-38 -10 -55 -18 -52 -7 2 -24 -7 -40 -22 l-27 -25 -56 26 c-64 30 -131 55
-148 55 -20 0 17 -19 112 -56 51 -20 91 -38 89 -40 -2 -3 -52 3 -111 12 -72
11 -111 13 -117 7 -7 -7 14 -13 63 -17 148 -14 169 -18 166 -33 -2 -8 -34 -28
-73 -44 -38 -17 -88 -39 -110 -50 -35 -18 -36 -20 -10 -14 36 8 164 63 184 78
10 9 19 5 37 -16 13 -16 29 -24 38 -21 11 4 16 -3 20 -28 14 -95 27 -176 33
-201 5 -26 4 -28 -21 -21 -16 4 -32 1 -43 -7 -15 -13 -16 -11 -9 21 14 65 26
155 25 190 0 29 -2 31 -9 14 -4 -11 -11 -47 -14 -80 -15 -136 -17 -147 -29
-135 -6 6 -24 11 -40 11 -17 0 -35 7 -42 17 -7 9 -23 17 -36 18 -14 1 -29 11
-36 25 -6 13 -24 30 -38 38 -17 8 -24 19 -21 28 3 8 -5 24 -19 36 -17 15 -23
28 -19 43 3 13 -1 29 -10 38 -18 18 -20 39 -6 53 8 8 7 19 -1 37 -10 21 -9 30
2 43 7 9 12 31 11 49 -2 25 2 34 18 38 14 3 20 13 20 32 0 19 6 29 20 32 12 3
27 18 36 34 8 17 23 29 34 29 10 0 25 9 33 20 8 11 17 17 20 13 4 -3 7 -2 7 4
0 6 9 9 19 6 11 -3 30 2 42 11 16 11 27 12 41 5 13 -7 29 -7 48 0z m12 -296
c39 -36 5 -102 -47 -89 -37 9 -52 48 -31 81 19 29 51 32 78 8z m66 -83 c22
-13 127 -54 175 -70 42 -13 45 -20 17 -38 -11 -7 -17 -18 -14 -27 4 -8 1 -15
-6 -15 -6 0 -9 -4 -6 -9 3 -5 -4 -11 -15 -14 -11 -3 -23 -15 -26 -27 -4 -13
-16 -23 -35 -27 -16 -3 -33 -14 -39 -24 -7 -13 -19 -19 -38 -17 -16 1 -36 -4
-44 -11 -13 -10 -16 -5 -22 46 -9 76 -22 152 -30 181 -4 13 -3 22 3 22 5 0 17
-23 26 -51 21 -63 76 -182 82 -176 4 4 -46 133 -76 199 -11 24 -11 31 5 48 21
23 20 23 43 10z"/>
<path d="M2521 1603 c-2 -38 20 -177 30 -193 7 -10 8 4 3 40 -9 72 -32 181
-33 153z"/>
<path d="M2440 1594 c0 -11 52 -136 74 -179 27 -52 17 -6 -14 65 -16 38 -30
72 -30 77 -1 12 -30 49 -30 37z"/>
<path d="M2644 1517 c-17 -45 -35 -93 -38 -107 -13 -46 15 7 51 99 37 94 36
91 26 91 -5 0 -22 -37 -39 -83z"/>
<path d="M2370 1555 c0 -12 104 -146 131 -171 22 -19 22 -18 -1 16 -19 29 -84
111 -122 155 -4 5 -8 5 -8 0z"/>
<path d="M2733 1446 c-80 -63 -116 -100 -77 -77 31 17 177 141 168 141 -5 0
-46 -29 -91 -64z"/>
<path d="M2310 1497 c0 -6 113 -96 155 -123 47 -30 19 2 -43 49 -68 52 -112
81 -112 74z"/>
<path d="M2765 1344 c-97 -17 -111 -22 -65 -23 46 -1 159 17 179 29 23 14 -16
11 -114 -6z"/>
<path d="M2680 1291 c0 -9 111 -22 175 -20 26 1 8 6 -50 14 -112 16 -125 17
-125 6z"/>
<path d="M2312 1278 c-35 -6 -60 -13 -55 -18 4 -4 58 1 118 10 91 15 100 18
55 18 -30 0 -84 -5 -118 -10z"/>
<path d="M2449 1221 c-46 -32 -155 -128 -129 -115 20 10 180 134 180 140 0 7
-6 5 -51 -25z"/>
<path d="M2455 1169 c-55 -71 -91 -129 -80 -129 9 0 147 191 142 196 -3 3 -30
-27 -62 -67z"/>
<path d="M2517 1198 c-56 -136 -77 -192 -73 -196 6 -5 56 101 75 161 12 36 10
64 -2 35z"/>
<path d="M2540 1325 c-18 -22 -1 -50 31 -50 20 0 24 5 24 30 0 23 -5 31 -21
33 -11 2 -27 -4 -34 -13z"/>
<path d="M2640 1245 c0 -9 173 -135 179 -129 6 6 -12 22 -105 89 -58 43 -74
51 -74 40z"/>
<path d="M2620 1234 c0 -3 26 -39 58 -81 83 -109 81 -107 87 -101 5 5 -131
188 -140 188 -3 0 -5 -3 -5 -6z"/>
<path d="M1620 1535 c0 -8 2 -15 4 -15 2 0 6 7 10 15 3 8 1 15 -4 15 -6 0 -10
-7 -10 -15z"/>
<path d="M1570 1523 c0 -4 5 -15 10 -23 8 -13 10 -13 10 2 0 9 -4 20 -10 23
-5 3 -10 3 -10 -2z"/>
<path d="M1640 1489 c0 -11 5 -17 10 -14 6 3 10 13 10 21 0 8 -4 14 -10 14 -5
0 -10 -9 -10 -21z"/>
<path d="M1666 1465 c-9 -26 -7 -32 5 -12 6 10 9 21 6 23 -2 3 -7 -2 -11 -11z"/>
<path d="M1685 1429 c-11 -17 1 -21 15 -4 8 9 8 15 2 15 -6 0 -14 -5 -17 -11z"/>
<path d="M1697 1392 c-19 -21 -22 -32 -7 -32 10 0 34 39 27 46 -2 2 -11 -4
-20 -14z"/>
<path d="M1711 1356 c-7 -8 -9 -21 -5 -27 5 -9 10 -5 16 11 10 28 5 36 -11 16z"/>
<path d="M1730 1315 c0 -14 5 -25 10 -25 6 0 10 11 10 25 0 14 -4 25 -10 25
-5 0 -10 -11 -10 -25z"/>
<path d="M1775 1300 c3 -5 8 -10 11 -10 2 0 4 5 4 10 0 6 -5 10 -11 10 -5 0
-7 -4 -4 -10z"/>
<path d="M2075 1600 c-3 -5 -1 -10 4 -10 6 0 11 5 11 10 0 6 -2 10 -4 10 -3 0
-8 -4 -11 -10z"/>
<path d="M1825 1440 c3 -5 8 -10 11 -10 2 0 4 5 4 10 0 6 -5 10 -11 10 -5 0
-7 -4 -4 -10z"/>
<path d="M1865 1440 c3 -5 8 -10 11 -10 2 0 4 5 4 10 0 6 -5 10 -11 10 -5 0
-7 -4 -4 -10z"/>
<path d="M1900 1439 c0 -5 5 -7 10 -4 6 3 10 8 10 11 0 2 -4 4 -10 4 -5 0 -10
-5 -10 -11z"/>
<path d="M1945 1440 c3 -5 8 -10 11 -10 2 0 4 5 4 10 0 6 -5 10 -11 10 -5 0
-7 -4 -4 -10z"/>
<path d="M1900 1389 c0 -5 5 -7 10 -4 6 3 10 8 10 11 0 2 -4 4 -10 4 -5 0 -10
-5 -10 -11z"/>
<path d="M3124 1510 c-27 -11 -35 -32 -19 -47 10 -9 16 -9 25 0 10 9 12 8 7
-5 -8 -22 6 -23 24 -2 10 12 10 17 1 23 -7 4 -10 15 -6 24 7 19 0 20 -32 7z"/>
<path d="M2980 1089 c0 -5 5 -7 10 -4 6 3 10 8 10 11 0 2 -4 4 -10 4 -5 0 -10
-5 -10 -11z"/>
<path d="M3020 1089 c0 -5 5 -7 10 -4 6 3 10 8 10 11 0 2 -4 4 -10 4 -5 0 -10
-5 -10 -11z"/>
<path d="M2940 990 c0 -5 5 -10 11 -10 5 0 7 5 4 10 -3 6 -8 10 -11 10 -2 0
-4 -4 -4 -10z"/>
<path d="M2860 939 c0 -5 5 -7 10 -4 6 3 10 8 10 11 0 2 -4 4 -10 4 -5 0 -10
-5 -10 -11z"/>
<path d="M2990 1549 c0 -5 5 -7 10 -4 6 3 10 8 10 11 0 2 -4 4 -10 4 -5 0 -10
-5 -10 -11z"/>
<path d="M2990 1510 c0 -5 5 -10 10 -10 6 0 10 5 10 10 0 6 -4 10 -10 10 -5 0
-10 -4 -10 -10z"/>
<path d="M3000 1460 c0 -5 5 -10 10 -10 6 0 10 5 10 10 0 6 -4 10 -10 10 -5 0
-10 -4 -10 -10z"/>
<path d="M3240 1590 c0 -5 5 -10 11 -10 5 0 7 5 4 10 -3 6 -8 10 -11 10 -2 0
-4 -4 -4 -10z"/>
<path d="M3270 1540 c0 -5 5 -10 10 -10 6 0 10 5 10 10 0 6 -4 10 -10 10 -5 0
-10 -4 -10 -10z"/>
<path d="M3305 1540 c3 -5 8 -10 11 -10 2 0 4 5 4 10 0 6 -5 10 -11 10 -5 0
-7 -4 -4 -10z"/>
<path d="M3345 1540 c-3 -5 -1 -10 4 -10 6 0 11 5 11 10 0 6 -2 10 -4 10 -3 0
-8 -4 -11 -10z"/>
<path d="M3310 1489 c0 -5 5 -7 10 -4 6 3 10 8 10 11 0 2 -4 4 -10 4 -5 0 -10
-5 -10 -11z"/>
<path d="M3340 1490 c0 -5 5 -10 10 -10 6 0 10 5 10 10 0 6 -4 10 -10 10 -5 0
-10 -4 -10 -10z"/>
<path d="M3390 1480 c0 -5 5 -10 10 -10 6 0 10 5 10 10 0 6 -4 10 -10 10 -5 0
-10 -4 -10 -10z"/>
<path d="M3395 1400 c3 -5 8 -10 11 -10 2 0 4 5 4 10 0 6 -5 10 -11 10 -5 0
-7 -4 -4 -10z"/>
<path d="M3395 1360 c4 -6 11 -8 16 -5 14 9 11 15 -7 15 -8 0 -12 -5 -9 -10z"/>
<path d="M2040 1230 c0 -5 5 -10 10 -10 6 0 10 5 10 10 0 6 -4 10 -10 10 -5 0
-10 -4 -10 -10z"/>
<path d="M2080 1230 c0 -5 5 -10 10 -10 6 0 10 5 10 10 0 6 -4 10 -10 10 -5 0
-10 -4 -10 -10z"/>
<path d="M2085 1140 c4 -6 11 -8 16 -5 14 9 11 15 -7 15 -8 0 -12 -5 -9 -10z"/>
<path d="M1680 1090 c0 -5 5 -10 10 -10 6 0 10 5 10 10 0 6 -4 10 -10 10 -5 0
-10 -4 -10 -10z"/>
<path d="M1720 1090 c0 -5 5 -10 10 -10 6 0 10 5 10 10 0 6 -4 10 -10 10 -5 0
-10 -4 -10 -10z"/>
<path d="M1650 1050 c0 -5 5 -10 10 -10 6 0 10 5 10 10 0 6 -4 10 -10 10 -5 0
-10 -4 -10 -10z"/>
<path d="M1680 1050 c0 -5 5 -10 10 -10 6 0 10 5 10 10 0 6 -4 10 -10 10 -5 0
-10 -4 -10 -10z"/>
<path d="M1725 1050 c4 -6 11 -8 16 -5 14 9 11 15 -7 15 -8 0 -12 -5 -9 -10z"/>
<path d="M1760 1050 c0 -5 5 -10 11 -10 5 0 7 5 4 10 -3 6 -8 10 -11 10 -2 0
-4 -4 -4 -10z"/>
<path d="M1820 1040 c0 -5 4 -10 9 -10 6 0 13 5 16 10 3 6 -1 10 -9 10 -9 0
-16 -4 -16 -10z"/>
<path d="M1860 1040 c0 -5 5 -10 10 -10 6 0 10 5 10 10 0 6 -4 10 -10 10 -5 0
-10 -4 -10 -10z"/>
<path d="M1900 1039 c0 -5 5 -7 10 -4 6 3 10 8 10 11 0 2 -4 4 -10 4 -5 0 -10
-5 -10 -11z"/>
<path d="M1645 1010 c-3 -5 1 -10 10 -10 9 0 13 5 10 10 -3 6 -8 10 -10 10 -2
0 -7 -4 -10 -10z"/>
<path d="M1720 1000 c0 -5 5 -10 10 -10 6 0 10 5 10 10 0 6 -4 10 -10 10 -5 0
-10 -4 -10 -10z"/>
<path d="M1760 1000 c0 -5 5 -10 11 -10 5 0 7 5 4 10 -3 6 -8 10 -11 10 -2 0
-4 -4 -4 -10z"/>
<path d="M1830 1000 c0 -5 5 -10 10 -10 6 0 10 5 10 10 0 6 -4 10 -10 10 -5 0
-10 -4 -10 -10z"/>
<path d="M1865 1000 c-3 -5 1 -10 10 -10 9 0 13 5 10 10 -3 6 -8 10 -10 10 -2
0 -7 -4 -10 -10z"/>
<path d="M1900 999 c0 -5 5 -7 10 -4 6 3 10 8 10 11 0 2 -4 4 -10 4 -5 0 -10
-5 -10 -11z"/>
<path d="M1980 1000 c0 -5 5 -10 11 -10 5 0 7 5 4 10 -3 6 -8 10 -11 10 -2 0
-4 -4 -4 -10z"/>
<path d="M3300 1070 c0 -5 5 -10 10 -10 6 0 10 5 10 10 0 6 -4 10 -10 10 -5 0
-10 -4 -10 -10z"/>
<path d="M3290 1020 c0 -5 5 -10 10 -10 6 0 10 5 10 10 0 6 -4 10 -10 10 -5 0
-10 -4 -10 -10z"/>
<path d="M3290 980 c0 -5 5 -10 11 -10 5 0 7 5 4 10 -3 6 -8 10 -11 10 -2 0
-4 -4 -4 -10z"/>
<path d="M2190 513 c0 -19 47 -54 64 -47 12 5 29 -5 57 -32 53 -51 50 -24 -3
32 -31 32 -53 46 -80 51 -22 3 -38 2 -38 -4z"/>
<path d="M3410 508 c0 -23 35 -49 54 -42 12 5 29 -5 57 -32 57 -56 60 -34 3
26 -51 52 -114 79 -114 48z"/>
<path d="M1440 360 c0 -16 7 -20 35 -20 33 0 35 -2 35 -35 0 -33 -2 -36 -27
-33 -24 3 -28 -1 -31 -23 -5 -43 123 -198 145 -175 4 3 -12 26 -36 50 l-43 44
16 31 c16 31 17 31 46 16 16 -8 43 -15 60 -15 29 0 30 -1 30 -48 0 -44 12 -72
32 -72 4 0 8 58 8 130 l0 130 135 0 c128 0 135 -1 135 -20 0 -29 -31 -40 -113
-40 -65 0 -76 -3 -96 -24 -34 -36 -22 -84 36 -144 31 -32 47 -43 51 -33 2 7
-10 27 -27 43 -61 57 -39 118 42 118 34 0 46 -6 78 -41 35 -38 41 -41 83 -37
44 3 46 2 46 -23 0 -23 26 -59 43 -59 4 0 7 58 7 130 l0 130 40 0 40 0 0 -50
c0 -38 -4 -50 -15 -50 -31 0 -28 -31 5 -65 34 -35 60 -37 60 -4 0 16 8 19 50
19 l50 0 0 -43 c0 -43 27 -87 43 -70 4 3 7 64 7 135 l0 128 95 0 95 0 0 -30
c0 -16 -2 -30 -4 -30 -1 0 -17 5 -35 11 -41 14 -77 5 -97 -26 -14 -22 -14 -27
2 -61 21 -44 64 -65 106 -53 20 5 30 4 32 -4 13 -49 23 -71 34 -75 9 -3 12 28
12 131 0 126 1 135 20 140 11 3 20 12 20 21 0 14 -60 16 -625 16 -618 0 -625
0 -625 -20z m230 -64 c0 -42 -1 -44 -32 -47 -68 -8 -78 -2 -78 47 l0 44 55 0
55 0 0 -44z m410 -10 c0 -45 -4 -58 -22 -70 -28 -20 -68 -20 -93 -2 -17 13
-17 14 11 28 26 12 29 18 26 56 l-2 42 40 0 40 0 0 -54z m280 4 l0 -50 -50 0
-50 0 0 50 0 50 50 0 50 0 0 -50z m238 -56 c2 -15 -5 -24 -27 -33 -42 -18 -77
-11 -73 14 8 47 94 63 100 19z"/>
<path d="M2802 363 c3 -16 18 -18 126 -21 l122 -3 0 -29 0 -30 -70 0 c-38 0
-70 -4 -70 -9 0 -4 9 -20 21 -35 25 -32 21 -60 -9 -64 -28 -4 -55 18 -77 64
-16 34 -35 45 -35 21 0 -20 55 -103 81 -121 13 -9 35 -16 50 -16 46 0 59 34
34 93 -6 15 -1 17 34 17 l41 0 0 -60 c0 -49 4 -63 23 -80 l22 -21 3 135 3 136
54 0 c46 0 55 -3 55 -18 0 -25 -19 -42 -47 -42 -31 0 -29 -18 8 -68 33 -44 60
-57 109 -50 25 4 30 1 30 -17 0 -23 26 -65 41 -65 5 0 9 55 9 129 l0 130 105
3 c102 3 106 2 111 -19 9 -35 -3 -43 -65 -43 -67 0 -101 -23 -101 -69 0 -31
44 -103 79 -127 37 -27 36 -7 -3 36 -39 43 -44 65 -22 95 10 14 27 19 62 19
l49 1 3 -67 c3 -64 19 -97 40 -84 4 3 7 58 5 124 -3 98 -1 121 12 132 8 7 15
19 15 26 0 12 -71 14 -426 14 -400 0 -425 -1 -422 -17z m518 -68 c0 -35 -6
-52 -25 -70 -25 -26 -68 -32 -95 -15 -13 8 -10 14 14 33 26 21 28 28 22 60
l-7 37 46 0 45 0 0 -45z"/>
</g>
</svg>
